<?xml version="1.0" encoding="utf-8"?>
<!-- Generator: Adobe Illustrator 25.4.1, SVG Export Plug-In . SVG Version: 6.00 Build 0)  -->
<svg version="1.1" id="Layer_1" xmlns="http://www.w3.org/2000/svg" xmlns:xlink="http://www.w3.org/1999/xlink" x="0px" y="0px"
	 viewBox="0 0 404 289" style="enable-background:new 0 0 404 289;" xml:space="preserve">
<style type="text/css">
	.st0{filter:url(#filter-remove-color);}
	.st1{opacity:0.75;}
	.st2{mask:url(#mask-0_00000160154392146645531470000010864197959764946871_);}
	.st3{clip-path:url(#SVGID_00000180337431506572380840000008527130443002889396_);}
	.st4{fill:#C1E4FF;}
	.st5{clip-path:url(#SVGID_00000117639187822119454480000013283557665111809668_);}
	.st6{fill:#EAE6FF;}
	.st7{opacity:0.35;}
	.st8{mask:url(#mask-1_00000060016517417969593180000011658352481387736459_);}
	.st9{clip-path:url(#SVGID_00000065049609073302422150000017781037100064601218_);}
	.st10{clip-path:url(#SVGID_00000013155618898705024990000000781317414780306853_);}
	.st11{fill:#BFE2FF;}
	.st12{fill:#FFFFFF;}
	.st13{fill:#FFDE6E;}
	.st14{fill:#03B09C;}
	.st15{fill:#0D937F;}
	.st16{fill:#A8D2EF;}
	.st17{fill:#3A62A8;}
	.st18{opacity:0.85;}
	.st19{mask:url(#mask-2_00000166670900617143570580000002110707253163482278_);}
	.st20{clip-path:url(#SVGID_00000128485270112989957090000017623164127299454655_);}
	.st21{clip-path:url(#SVGID_00000039127885682090094740000007622380577346095756_);}
	.st22{opacity:0.25;}
	.st23{mask:url(#mask-3_00000127723271451278717760000010832639219848207246_);}
	.st24{clip-path:url(#SVGID_00000070838046836842781820000017035674575487186061_);}
	.st25{clip-path:url(#SVGID_00000073717463957148540990000015140693375391941798_);}
	.st26{fill:#2D548C;}
	.st27{fill:#FFB9B0;}
	.st28{mask:url(#mask-4_00000041292122617240387600000006509040678598001297_);}
	.st29{clip-path:url(#SVGID_00000183235663534689815260000014788234069702024094_);}
	.st30{clip-path:url(#SVGID_00000075856072941691921490000005329181871732956580_);}
	.st31{fill:#7762EF;}
	.st32{fill:#5045AF;}
	.st33{fill:#F8BD37;}
	.st34{fill:#F9DD8C;}
	.st35{fill:#F9A6A6;}
	.st36{fill:#E29191;}
	.st37{opacity:0.45;}
	.st38{mask:url(#mask-5_00000143588221550919941130000008864163578667975062_);}
	.st39{clip-path:url(#SVGID_00000078029567239738848940000007407463069103428543_);}
	.st40{clip-path:url(#SVGID_00000124151787062410624650000015784800479242218144_);}
	.st41{opacity:0.4;}
	.st42{mask:url(#mask-6_00000106864821141336644150000015644168611514637210_);}
	.st43{clip-path:url(#SVGID_00000182515972865357833830000009228670671791890828_);}
	.st44{clip-path:url(#SVGID_00000118362600731654167780000012528424039705891484_);}
	.st45{fill:#E8AB31;}
	.st46{mask:url(#mask-7_00000042018042047898057060000000721881068606060454_);}
	.st47{clip-path:url(#SVGID_00000133509904215482122650000014676056196255542175_);}
	.st48{clip-path:url(#SVGID_00000080173808071287639040000001289399460343986831_);}
	.st49{mask:url(#mask-8_00000068665728237867402300000002619332394934137497_);}
	.st50{clip-path:url(#SVGID_00000024715885611508003220000011082413019355213961_);}
	.st51{clip-path:url(#SVGID_00000176722549281726208870000008058944805600467868_);}
</style>
<filter  height="100%" id="filter-remove-color" width="100%" x="0%" y="0%">
	<feColorMatrix  color-interpolation-filters="sRGB" values="0 0 0 0 1 0 0 0 0 1 0 0 0 0 1 0 0 0 1 0"></feColorMatrix>
</filter>
<defs>
	<filter id="Adobe_OpacityMaskFilter" filterUnits="userSpaceOnUse" x="100" y="61" width="49" height="127">
		<feColorMatrix  type="matrix" values="1 0 0 0 0  0 1 0 0 0  0 0 1 0 0  0 0 0 1 0"/>
	</filter>
</defs>
<mask maskUnits="userSpaceOnUse" x="100" y="61" width="49" height="127" id="mask-0_00000160154392146645531470000010864197959764946871_">
	<g class="st0">
		<g>
			<rect x="-61.2" y="-135.2" class="st1" width="734.4" height="950.4"/>
		</g>
	</g>
</mask>
<g class="st2">
	<g transform="matrix(1, 0, 0, 1, 100, 117)">
		<g>
			<defs>
				<rect id="SVGID_1_" x="100" y="61" width="49" height="127"/>
			</defs>
			<clipPath id="SVGID_00000101809495949601596310000007637787282374050996_">
				<use xlink:href="#SVGID_1_"  style="overflow:visible;"/>
			</clipPath>
			<g id="source-5" style="clip-path:url(#SVGID_00000101809495949601596310000007637787282374050996_);">
				<path class="st4" d="M147.9,71.1c0,0.2,0,0.4-0.1,0.5c-0.1,0.2-0.2,0.3-0.3,0.5c-0.1,0.1-0.3,0.2-0.5,0.3
					c-0.2,0.1-0.4,0.1-0.5,0.1c-0.2,0-0.4,0-0.5-0.1c-0.2-0.1-0.3-0.2-0.5-0.3c-0.1-0.1-0.2-0.3-0.3-0.5c-0.1-0.2-0.1-0.4-0.1-0.5
					s0-0.4,0.1-0.5c0.1-0.2,0.2-0.3,0.3-0.5c0.1-0.1,0.3-0.2,0.5-0.3c0.2-0.1,0.4-0.1,0.5-0.1c0.2,0,0.4,0,0.5,0.1
					c0.2,0.1,0.3,0.2,0.5,0.3c0.1,0.1,0.2,0.3,0.3,0.5C147.9,70.8,147.9,70.9,147.9,71.1z"/>
				<path class="st4" d="M146.5,88.9c-0.2,0-0.4,0-0.5-0.1c-0.2-0.1-0.3-0.2-0.5-0.3s-0.2-0.3-0.3-0.5c-0.1-0.2-0.1-0.4-0.1-0.5
					c0-0.2,0-0.4,0.1-0.5c0.1-0.2,0.2-0.3,0.3-0.5s0.3-0.2,0.5-0.3c0.2-0.1,0.4-0.1,0.5-0.1c0.2,0,0.4,0,0.5,0.1
					c0.2,0.1,0.3,0.2,0.5,0.3s0.2,0.3,0.3,0.5c0.1,0.2,0.1,0.4,0.1,0.5c0,0.2,0,0.4-0.1,0.5c-0.1,0.2-0.2,0.3-0.3,0.5
					s-0.3,0.2-0.5,0.3C146.8,88.8,146.7,88.9,146.5,88.9z M146.5,105.2c-0.2,0-0.4,0-0.5-0.1c-0.2-0.1-0.3-0.2-0.5-0.3
					c-0.1-0.1-0.2-0.3-0.3-0.5c-0.1-0.2-0.1-0.4-0.1-0.5s0-0.4,0.1-0.5c0.1-0.2,0.2-0.3,0.3-0.5s0.3-0.2,0.5-0.3
					c0.2-0.1,0.4-0.1,0.5-0.1c0.2,0,0.4,0,0.5,0.1c0.2,0.1,0.3,0.2,0.5,0.3s0.2,0.3,0.3,0.5c0.1,0.2,0.1,0.4,0.1,0.5s0,0.4-0.1,0.5
					c-0.1,0.2-0.2,0.3-0.3,0.5c-0.1,0.1-0.3,0.2-0.5,0.3C146.8,105.1,146.7,105.2,146.5,105.2z"/>
				<path class="st4" d="M147.9,120.1c0,0.2,0,0.4-0.1,0.5c-0.1,0.2-0.2,0.3-0.3,0.5s-0.3,0.2-0.5,0.3s-0.4,0.1-0.5,0.1
					c-0.2,0-0.4,0-0.5-0.1c-0.2-0.1-0.3-0.2-0.5-0.3s-0.2-0.3-0.3-0.5c-0.1-0.2-0.1-0.4-0.1-0.5c0-0.2,0-0.4,0.1-0.5
					c0.1-0.2,0.2-0.3,0.3-0.5s0.3-0.2,0.5-0.3c0.2-0.1,0.4-0.1,0.5-0.1c0.2,0,0.4,0,0.5,0.1c0.2,0.1,0.3,0.2,0.5,0.3
					s0.2,0.3,0.3,0.5C147.9,119.7,147.9,119.9,147.9,120.1z"/>
				<path class="st4" d="M147.9,136.4c0,0.2,0,0.4-0.1,0.5c-0.1,0.2-0.2,0.3-0.3,0.5c-0.1,0.1-0.3,0.2-0.5,0.3
					c-0.2,0.1-0.4,0.1-0.5,0.1c-0.2,0-0.4,0-0.5-0.1c-0.2-0.1-0.3-0.2-0.5-0.3c-0.1-0.1-0.2-0.3-0.3-0.5c-0.1-0.2-0.1-0.4-0.1-0.5
					s0-0.4,0.1-0.5c0.1-0.2,0.2-0.3,0.3-0.5s0.3-0.2,0.5-0.3c0.2-0.1,0.4-0.1,0.5-0.1c0.2,0,0.4,0,0.5,0.1c0.2,0.1,0.3,0.2,0.5,0.3
					s0.2,0.3,0.3,0.5C147.9,136,147.9,136.2,147.9,136.4z"/>
				<path class="st4" d="M146.5,154.1c-0.2,0-0.4,0-0.5-0.1c-0.2-0.1-0.3-0.2-0.5-0.3s-0.2-0.3-0.3-0.5c-0.1-0.2-0.1-0.4-0.1-0.5
					c0-0.2,0-0.4,0.1-0.5c0.1-0.2,0.2-0.3,0.3-0.5c0.1-0.1,0.3-0.2,0.5-0.3c0.2-0.1,0.4-0.1,0.5-0.1c0.2,0,0.4,0,0.5,0.1
					c0.2,0.1,0.3,0.2,0.5,0.3c0.1,0.1,0.2,0.3,0.3,0.5c0.1,0.2,0.1,0.4,0.1,0.5c0,0.2,0,0.4-0.1,0.5c-0.1,0.2-0.2,0.3-0.3,0.5
					s-0.3,0.2-0.5,0.3C146.8,154.1,146.7,154.1,146.5,154.1z M146.5,170.4c-0.2,0-0.4,0-0.5-0.1c-0.2-0.1-0.3-0.2-0.5-0.3
					s-0.2-0.3-0.3-0.5c-0.1-0.2-0.1-0.4-0.1-0.5c0-0.2,0-0.4,0.1-0.5c0.1-0.2,0.2-0.3,0.3-0.5s0.3-0.2,0.5-0.3
					c0.2-0.1,0.4-0.1,0.5-0.1c0.2,0,0.4,0,0.5,0.1c0.2,0.1,0.3,0.2,0.5,0.3s0.2,0.3,0.3,0.5c0.1,0.2,0.1,0.4,0.1,0.5
					c0,0.2,0,0.4-0.1,0.5c-0.1,0.2-0.2,0.3-0.3,0.5s-0.3,0.2-0.5,0.3C146.8,170.4,146.7,170.4,146.5,170.4z"/>
				<path class="st4" d="M147.9,185.3c0,0.2,0,0.4-0.1,0.5c-0.1,0.2-0.2,0.3-0.3,0.5s-0.3,0.2-0.5,0.3c-0.2,0.1-0.4,0.1-0.5,0.1
					c-0.2,0-0.4,0-0.5-0.1c-0.2-0.1-0.3-0.2-0.5-0.3s-0.2-0.3-0.3-0.5c-0.1-0.2-0.1-0.4-0.1-0.5s0-0.4,0.1-0.5
					c0.1-0.2,0.2-0.3,0.3-0.5c0.1-0.1,0.3-0.2,0.5-0.3c0.2-0.1,0.4-0.1,0.5-0.1c0.2,0,0.4,0,0.5,0.1c0.2,0.1,0.3,0.2,0.5,0.3
					c0.1,0.1,0.2,0.3,0.3,0.5C147.9,184.9,147.9,185.1,147.9,185.3z"/>
				<g>
					<defs>
						<rect id="SVGID_00000074421719170175833800000001552487714989667205_" x="100.1" y="61.4" width="41.9" height="125.6"/>
					</defs>
					<clipPath id="SVGID_00000158724353243202208520000011433816432278532485_">
						<use xlink:href="#SVGID_00000074421719170175833800000001552487714989667205_"  style="overflow:visible;"/>
					</clipPath>
					<g style="clip-path:url(#SVGID_00000158724353243202208520000011433816432278532485_);">
						<path class="st4" d="M140.3,64.7c-0.2,0-0.4,0-0.5-0.1c-0.2-0.1-0.3-0.2-0.5-0.3s-0.2-0.3-0.3-0.5c-0.1-0.2-0.1-0.4-0.1-0.5
							c0-0.2,0-0.4,0.1-0.5c0.1-0.2,0.2-0.3,0.3-0.5s0.3-0.2,0.5-0.3c0.2-0.1,0.4-0.1,0.5-0.1c0.2,0,0.4,0,0.5,0.1
							c0.2,0.1,0.3,0.2,0.5,0.3s0.2,0.3,0.3,0.5c0.1,0.2,0.1,0.4,0.1,0.5c0,0.2,0,0.4-0.1,0.5c-0.1,0.2-0.2,0.3-0.3,0.5
							s-0.3,0.2-0.5,0.3C140.7,64.6,140.5,64.7,140.3,64.7z M140.3,81c-0.2,0-0.4,0-0.5-0.1c-0.2-0.1-0.3-0.2-0.5-0.3
							c-0.1-0.1-0.2-0.3-0.3-0.5c-0.1-0.2-0.1-0.4-0.1-0.5c0-0.2,0-0.4,0.1-0.5c0.1-0.2,0.2-0.3,0.3-0.5s0.3-0.2,0.5-0.3
							c0.2-0.1,0.4-0.1,0.5-0.1c0.2,0,0.4,0,0.5,0.1c0.2,0.1,0.3,0.2,0.5,0.3s0.2,0.3,0.3,0.5c0.1,0.2,0.1,0.4,0.1,0.5
							c0,0.2,0,0.4-0.1,0.5c-0.1,0.2-0.2,0.3-0.3,0.5c-0.1,0.1-0.3,0.2-0.5,0.3C140.7,80.9,140.5,81,140.3,81z M140.3,97.3
							c-0.2,0-0.4,0-0.5-0.1c-0.2-0.1-0.3-0.2-0.5-0.3s-0.2-0.3-0.3-0.5c-0.1-0.2-0.1-0.4-0.1-0.5s0-0.4,0.1-0.5
							c0.1-0.2,0.2-0.3,0.3-0.5c0.1-0.1,0.3-0.2,0.5-0.3c0.2-0.1,0.4-0.1,0.5-0.1c0.2,0,0.4,0,0.5,0.1c0.2,0.1,0.3,0.2,0.5,0.3
							c0.1,0.1,0.2,0.3,0.3,0.5c0.1,0.2,0.1,0.4,0.1,0.5s0,0.4-0.1,0.5c-0.1,0.2-0.2,0.3-0.3,0.5s-0.3,0.2-0.5,0.3
							C140.7,97.2,140.5,97.3,140.3,97.3z M140.3,113.6c-0.2,0-0.4,0-0.5-0.1c-0.2-0.1-0.3-0.2-0.5-0.3s-0.2-0.3-0.3-0.5
							c-0.1-0.2-0.1-0.4-0.1-0.5c0-0.2,0-0.4,0.1-0.5c0.1-0.2,0.2-0.3,0.3-0.5s0.3-0.2,0.5-0.3s0.4-0.1,0.5-0.1c0.2,0,0.4,0,0.5,0.1
							s0.3,0.2,0.5,0.3s0.2,0.3,0.3,0.5c0.1,0.2,0.1,0.4,0.1,0.5c0,0.2,0,0.4-0.1,0.5c-0.1,0.2-0.2,0.3-0.3,0.5s-0.3,0.2-0.5,0.3
							C140.7,113.6,140.5,113.6,140.3,113.6z M140.3,129.9c-0.2,0-0.4,0-0.5-0.1c-0.2-0.1-0.3-0.2-0.5-0.3s-0.2-0.3-0.3-0.5
							c-0.1-0.2-0.1-0.4-0.1-0.5s0-0.4,0.1-0.5c0.1-0.2,0.2-0.3,0.3-0.5c0.1-0.1,0.3-0.2,0.5-0.3c0.2-0.1,0.4-0.1,0.5-0.1
							c0.2,0,0.4,0,0.5,0.1c0.2,0.1,0.3,0.2,0.5,0.3c0.1,0.1,0.2,0.3,0.3,0.5c0.1,0.2,0.1,0.4,0.1,0.5s0,0.4-0.1,0.5
							c-0.1,0.2-0.2,0.3-0.3,0.5s-0.3,0.2-0.5,0.3C140.7,129.9,140.5,129.9,140.3,129.9z M140.3,146.2c-0.2,0-0.4,0-0.5-0.1
							c-0.2-0.1-0.3-0.2-0.5-0.3s-0.2-0.3-0.3-0.5c-0.1-0.2-0.1-0.4-0.1-0.5c0-0.2,0-0.4,0.1-0.5c0.1-0.2,0.2-0.3,0.3-0.5
							s0.3-0.2,0.5-0.3c0.2-0.1,0.4-0.1,0.5-0.1c0.2,0,0.4,0,0.5,0.1c0.2,0.1,0.3,0.2,0.5,0.3s0.2,0.3,0.3,0.5
							c0.1,0.2,0.1,0.4,0.1,0.5c0,0.2,0,0.4-0.1,0.5c-0.1,0.2-0.2,0.3-0.3,0.5s-0.3,0.2-0.5,0.3
							C140.7,146.2,140.5,146.2,140.3,146.2z M140.3,162.5c-0.2,0-0.4,0-0.5-0.1c-0.2-0.1-0.3-0.2-0.5-0.3c-0.1-0.1-0.2-0.3-0.3-0.5
							c-0.1-0.2-0.1-0.4-0.1-0.5s0-0.4,0.1-0.5c0.1-0.2,0.2-0.3,0.3-0.5c0.1-0.1,0.3-0.2,0.5-0.3c0.2-0.1,0.4-0.1,0.5-0.1
							c0.2,0,0.4,0,0.5,0.1c0.2,0.1,0.3,0.2,0.5,0.3c0.1,0.1,0.2,0.3,0.3,0.5c0.1,0.2,0.1,0.4,0.1,0.5s0,0.4-0.1,0.5
							c-0.1,0.2-0.2,0.3-0.3,0.5c-0.1,0.1-0.3,0.2-0.5,0.3C140.7,162.5,140.5,162.5,140.3,162.5z M140.3,178.8c-0.2,0-0.4,0-0.5-0.1
							c-0.2-0.1-0.3-0.2-0.5-0.3s-0.2-0.3-0.3-0.5c-0.1-0.2-0.1-0.4-0.1-0.5c0-0.2,0-0.4,0.1-0.5c0.1-0.2,0.2-0.3,0.3-0.5
							s0.3-0.2,0.5-0.3c0.2-0.1,0.4-0.1,0.5-0.1c0.2,0,0.4,0,0.5,0.1c0.2,0.1,0.3,0.2,0.5,0.3s0.2,0.3,0.3,0.5
							c0.1,0.2,0.1,0.4,0.1,0.5c0,0.2,0,0.4-0.1,0.5c-0.1,0.2-0.2,0.3-0.3,0.5s-0.3,0.2-0.5,0.3
							C140.7,178.8,140.5,178.8,140.3,178.8z M133.8,72.5c-0.2,0-0.4,0-0.5-0.1c-0.2-0.1-0.3-0.2-0.5-0.3c-0.1-0.1-0.2-0.3-0.3-0.5
							c-0.1-0.2-0.1-0.4-0.1-0.5s0-0.4,0.1-0.5c0.1-0.2,0.2-0.3,0.3-0.5c0.1-0.1,0.3-0.2,0.5-0.3c0.2-0.1,0.4-0.1,0.5-0.1
							c0.2,0,0.4,0,0.5,0.1c0.2,0.1,0.3,0.2,0.5,0.3c0.1,0.1,0.2,0.3,0.3,0.5c0.1,0.2,0.1,0.4,0.1,0.5s0,0.4-0.1,0.5
							c-0.1,0.2-0.2,0.3-0.3,0.5c-0.1,0.1-0.3,0.2-0.5,0.3C134.1,72.5,133.9,72.5,133.8,72.5z M133.8,88.9c-0.2,0-0.4,0-0.5-0.1
							c-0.2-0.1-0.3-0.2-0.5-0.3s-0.2-0.3-0.3-0.5c-0.1-0.2-0.1-0.4-0.1-0.5c0-0.2,0-0.4,0.1-0.5c0.1-0.2,0.2-0.3,0.3-0.5
							s0.3-0.2,0.5-0.3c0.2-0.1,0.4-0.1,0.5-0.1c0.2,0,0.4,0,0.5,0.1c0.2,0.1,0.3,0.2,0.5,0.3s0.2,0.3,0.3,0.5
							c0.1,0.2,0.1,0.4,0.1,0.5c0,0.2,0,0.4-0.1,0.5c-0.1,0.2-0.2,0.3-0.3,0.5s-0.3,0.2-0.5,0.3C134.1,88.8,133.9,88.9,133.8,88.9z
							 M133.8,105.2c-0.2,0-0.4,0-0.5-0.1c-0.2-0.1-0.3-0.2-0.5-0.3c-0.1-0.1-0.2-0.3-0.3-0.5c-0.1-0.2-0.1-0.4-0.1-0.5
							s0-0.4,0.1-0.5c0.1-0.2,0.2-0.3,0.3-0.5s0.3-0.2,0.5-0.3c0.2-0.1,0.4-0.1,0.5-0.1c0.2,0,0.4,0,0.5,0.1
							c0.2,0.1,0.3,0.2,0.5,0.3s0.2,0.3,0.3,0.5c0.1,0.2,0.1,0.4,0.1,0.5s0,0.4-0.1,0.5c-0.1,0.2-0.2,0.3-0.3,0.5
							c-0.1,0.1-0.3,0.2-0.5,0.3C134.1,105.1,133.9,105.2,133.8,105.2z M133.8,121.5c-0.2,0-0.4,0-0.5-0.1s-0.3-0.2-0.5-0.3
							s-0.2-0.3-0.3-0.5c-0.1-0.2-0.1-0.4-0.1-0.5c0-0.2,0-0.4,0.1-0.5c0.1-0.2,0.2-0.3,0.3-0.5s0.3-0.2,0.5-0.3
							c0.2-0.1,0.4-0.1,0.5-0.1c0.2,0,0.4,0,0.5,0.1c0.2,0.1,0.3,0.2,0.5,0.3s0.2,0.3,0.3,0.5c0.1,0.2,0.1,0.4,0.1,0.5
							c0,0.2,0,0.4-0.1,0.5c-0.1,0.2-0.2,0.3-0.3,0.5s-0.3,0.2-0.5,0.3C134.1,121.4,133.9,121.5,133.8,121.5z M133.8,137.8
							c-0.2,0-0.4,0-0.5-0.1c-0.2-0.1-0.3-0.2-0.5-0.3c-0.1-0.1-0.2-0.3-0.3-0.5c-0.1-0.2-0.1-0.4-0.1-0.5s0-0.4,0.1-0.5
							c0.1-0.2,0.2-0.3,0.3-0.5s0.3-0.2,0.5-0.3c0.2-0.1,0.4-0.1,0.5-0.1c0.2,0,0.4,0,0.5,0.1c0.2,0.1,0.3,0.2,0.5,0.3
							s0.2,0.3,0.3,0.5c0.1,0.2,0.1,0.4,0.1,0.5s0,0.4-0.1,0.5c-0.1,0.2-0.2,0.3-0.3,0.5c-0.1,0.1-0.3,0.2-0.5,0.3
							C134.1,137.8,133.9,137.8,133.8,137.8z M133.8,154.1c-0.2,0-0.4,0-0.5-0.1c-0.2-0.1-0.3-0.2-0.5-0.3s-0.2-0.3-0.3-0.5
							c-0.1-0.2-0.1-0.4-0.1-0.5c0-0.2,0-0.4,0.1-0.5c0.1-0.2,0.2-0.3,0.3-0.5c0.1-0.1,0.3-0.2,0.5-0.3c0.2-0.1,0.4-0.1,0.5-0.1
							c0.2,0,0.4,0,0.5,0.1c0.2,0.1,0.3,0.2,0.5,0.3c0.1,0.1,0.2,0.3,0.3,0.5c0.1,0.2,0.1,0.4,0.1,0.5c0,0.2,0,0.4-0.1,0.5
							c-0.1,0.2-0.2,0.3-0.3,0.5s-0.3,0.2-0.5,0.3C134.1,154.1,133.9,154.1,133.8,154.1z M133.8,170.4c-0.2,0-0.4,0-0.5-0.1
							c-0.2-0.1-0.3-0.2-0.5-0.3s-0.2-0.3-0.3-0.5c-0.1-0.2-0.1-0.4-0.1-0.5c0-0.2,0-0.4,0.1-0.5c0.1-0.2,0.2-0.3,0.3-0.5
							s0.3-0.2,0.5-0.3c0.2-0.1,0.4-0.1,0.5-0.1c0.2,0,0.4,0,0.5,0.1c0.2,0.1,0.3,0.2,0.5,0.3s0.2,0.3,0.3,0.5
							c0.1,0.2,0.1,0.4,0.1,0.5c0,0.2,0,0.4-0.1,0.5c-0.1,0.2-0.2,0.3-0.3,0.5s-0.3,0.2-0.5,0.3
							C134.1,170.4,133.9,170.4,133.8,170.4z M133.8,186.7c-0.2,0-0.4,0-0.5-0.1c-0.2-0.1-0.3-0.2-0.5-0.3s-0.2-0.3-0.3-0.5
							c-0.1-0.2-0.1-0.4-0.1-0.5s0-0.4,0.1-0.5c0.1-0.2,0.2-0.3,0.3-0.5c0.1-0.1,0.3-0.2,0.5-0.3c0.2-0.1,0.4-0.1,0.5-0.1
							c0.2,0,0.4,0,0.5,0.1c0.2,0.1,0.3,0.2,0.5,0.3c0.1,0.1,0.2,0.3,0.3,0.5c0.1,0.2,0.1,0.4,0.1,0.5s0,0.4-0.1,0.5
							c-0.1,0.2-0.2,0.3-0.3,0.5s-0.3,0.2-0.5,0.3C134.1,186.7,133.9,186.7,133.8,186.7z M127.6,64.7c-0.2,0-0.4,0-0.5-0.1
							c-0.2-0.1-0.3-0.2-0.5-0.3c-0.1-0.1-0.2-0.3-0.3-0.5c-0.1-0.2-0.1-0.4-0.1-0.5c0-0.2,0-0.4,0.1-0.5c0.1-0.2,0.2-0.3,0.3-0.5
							c0.1-0.1,0.3-0.2,0.5-0.3c0.2-0.1,0.4-0.1,0.5-0.1s0.4,0,0.5,0.1c0.2,0.1,0.3,0.2,0.5,0.3c0.1,0.1,0.2,0.3,0.3,0.5
							c0.1,0.2,0.1,0.4,0.1,0.5c0,0.2,0,0.4-0.1,0.5c-0.1,0.2-0.2,0.3-0.3,0.5c-0.1,0.1-0.3,0.2-0.5,0.3
							C128,64.6,127.8,64.7,127.6,64.7z M127.6,81c-0.2,0-0.4,0-0.5-0.1c-0.2-0.1-0.3-0.2-0.5-0.3c-0.1-0.1-0.2-0.3-0.3-0.5
							c-0.1-0.2-0.1-0.4-0.1-0.5c0-0.2,0-0.4,0.1-0.5c0.1-0.2,0.2-0.3,0.3-0.5c0.1-0.1,0.3-0.2,0.5-0.3c0.2-0.1,0.4-0.1,0.5-0.1
							s0.4,0,0.5,0.1c0.2,0.1,0.3,0.2,0.5,0.3c0.1,0.1,0.2,0.3,0.3,0.5c0.1,0.2,0.1,0.4,0.1,0.5c0,0.2,0,0.4-0.1,0.5
							c-0.1,0.2-0.2,0.3-0.3,0.5c-0.1,0.1-0.3,0.2-0.5,0.3C128,80.9,127.8,81,127.6,81z M127.6,97.3c-0.2,0-0.4,0-0.5-0.1
							c-0.2-0.1-0.3-0.2-0.5-0.3c-0.1-0.1-0.2-0.3-0.3-0.5c-0.1-0.2-0.1-0.4-0.1-0.5s0-0.4,0.1-0.5c0.1-0.2,0.2-0.3,0.3-0.5
							c0.1-0.1,0.3-0.2,0.5-0.3c0.2-0.1,0.4-0.1,0.5-0.1s0.4,0,0.5,0.1c0.2,0.1,0.3,0.2,0.5,0.3c0.1,0.1,0.2,0.3,0.3,0.5
							c0.1,0.2,0.1,0.4,0.1,0.5s0,0.4-0.1,0.5c-0.1,0.2-0.2,0.3-0.3,0.5c-0.1,0.1-0.3,0.2-0.5,0.3C128,97.2,127.8,97.3,127.6,97.3z
							 M127.6,113.6c-0.2,0-0.4,0-0.5-0.1c-0.2-0.1-0.3-0.2-0.5-0.3c-0.1-0.1-0.2-0.3-0.3-0.5c-0.1-0.2-0.1-0.4-0.1-0.5
							c0-0.2,0-0.4,0.1-0.5c0.1-0.2,0.2-0.3,0.3-0.5c0.1-0.1,0.3-0.2,0.5-0.3c0.2-0.1,0.4-0.1,0.5-0.1s0.4,0,0.5,0.1
							c0.2,0.1,0.3,0.2,0.5,0.3c0.1,0.1,0.2,0.3,0.3,0.5c0.1,0.2,0.1,0.4,0.1,0.5c0,0.2,0,0.4-0.1,0.5c-0.1,0.2-0.2,0.3-0.3,0.5
							c-0.1,0.1-0.3,0.2-0.5,0.3C128,113.6,127.8,113.6,127.6,113.6z M127.6,129.9c-0.2,0-0.4,0-0.5-0.1c-0.2-0.1-0.3-0.2-0.5-0.3
							c-0.1-0.1-0.2-0.3-0.3-0.5c-0.1-0.2-0.1-0.4-0.1-0.5s0-0.4,0.1-0.5c0.1-0.2,0.2-0.3,0.3-0.5c0.1-0.1,0.3-0.2,0.5-0.3
							c0.2-0.1,0.4-0.1,0.5-0.1s0.4,0,0.5,0.1c0.2,0.1,0.3,0.2,0.5,0.3c0.1,0.1,0.2,0.3,0.3,0.5c0.1,0.2,0.1,0.4,0.1,0.5
							s0,0.4-0.1,0.5c-0.1,0.2-0.2,0.3-0.3,0.5c-0.1,0.1-0.3,0.2-0.5,0.3C128,129.9,127.8,129.9,127.6,129.9z M127.6,146.2
							c-0.2,0-0.4,0-0.5-0.1c-0.2-0.1-0.3-0.2-0.5-0.3c-0.1-0.1-0.2-0.3-0.3-0.5c-0.1-0.2-0.1-0.4-0.1-0.5c0-0.2,0-0.4,0.1-0.5
							c0.1-0.2,0.2-0.3,0.3-0.5c0.1-0.1,0.3-0.2,0.5-0.3c0.2-0.1,0.4-0.1,0.5-0.1s0.4,0,0.5,0.1c0.2,0.1,0.3,0.2,0.5,0.3
							c0.1,0.1,0.2,0.3,0.3,0.5c0.1,0.2,0.1,0.4,0.1,0.5c0,0.2,0,0.4-0.1,0.5c-0.1,0.2-0.2,0.3-0.3,0.5c-0.1,0.1-0.3,0.2-0.5,0.3
							C128,146.2,127.8,146.2,127.6,146.2z M127.6,162.5c-0.2,0-0.4,0-0.5-0.1c-0.2-0.1-0.3-0.2-0.5-0.3c-0.1-0.1-0.2-0.3-0.3-0.5
							c-0.1-0.2-0.1-0.4-0.1-0.5s0-0.4,0.1-0.5c0.1-0.2,0.2-0.3,0.3-0.5c0.1-0.1,0.3-0.2,0.5-0.3c0.2-0.1,0.4-0.1,0.5-0.1
							s0.4,0,0.5,0.1c0.2,0.1,0.3,0.2,0.5,0.3c0.1,0.1,0.2,0.3,0.3,0.5c0.1,0.2,0.1,0.4,0.1,0.5s0,0.4-0.1,0.5
							c-0.1,0.2-0.2,0.3-0.3,0.5c-0.1,0.1-0.3,0.2-0.5,0.3C128,162.5,127.8,162.5,127.6,162.5z M127.6,178.8c-0.2,0-0.4,0-0.5-0.1
							c-0.2-0.1-0.3-0.2-0.5-0.3c-0.1-0.1-0.2-0.3-0.3-0.5c-0.1-0.2-0.1-0.4-0.1-0.5c0-0.2,0-0.4,0.1-0.5c0.1-0.2,0.2-0.3,0.3-0.5
							c0.1-0.1,0.3-0.2,0.5-0.3c0.2-0.1,0.4-0.1,0.5-0.1s0.4,0,0.5,0.1c0.2,0.1,0.3,0.2,0.5,0.3c0.1,0.1,0.2,0.3,0.3,0.5
							c0.1,0.2,0.1,0.4,0.1,0.5c0,0.2,0,0.4-0.1,0.5c-0.1,0.2-0.2,0.3-0.3,0.5c-0.1,0.1-0.3,0.2-0.5,0.3
							C128,178.8,127.8,178.8,127.6,178.8z M121,72.5c-0.2,0-0.4,0-0.5-0.1c-0.2-0.1-0.3-0.2-0.5-0.3c-0.1-0.1-0.2-0.3-0.3-0.5
							c-0.1-0.2-0.1-0.4-0.1-0.5s0-0.4,0.1-0.5c0.1-0.2,0.2-0.3,0.3-0.5c0.1-0.1,0.3-0.2,0.5-0.3c0.2-0.1,0.4-0.1,0.5-0.1
							s0.4,0,0.5,0.1c0.2,0.1,0.3,0.2,0.5,0.3c0.1,0.1,0.2,0.3,0.3,0.5c0.1,0.2,0.1,0.4,0.1,0.5s0,0.4-0.1,0.5
							c-0.1,0.2-0.2,0.3-0.3,0.5c-0.1,0.1-0.3,0.2-0.5,0.3C121.4,72.5,121.2,72.5,121,72.5z M121,88.9c-0.2,0-0.4,0-0.5-0.1
							c-0.2-0.1-0.3-0.2-0.5-0.3s-0.2-0.3-0.3-0.5c-0.1-0.2-0.1-0.4-0.1-0.5c0-0.2,0-0.4,0.1-0.5c0.1-0.2,0.2-0.3,0.3-0.5
							s0.3-0.2,0.5-0.3c0.2-0.1,0.4-0.1,0.5-0.1s0.4,0,0.5,0.1c0.2,0.1,0.3,0.2,0.5,0.3c0.1,0.1,0.2,0.3,0.3,0.5
							c0.1,0.2,0.1,0.4,0.1,0.5c0,0.2,0,0.4-0.1,0.5c-0.1,0.2-0.2,0.3-0.3,0.5c-0.1,0.1-0.3,0.2-0.5,0.3
							C121.4,88.8,121.2,88.9,121,88.9z M121,105.2c-0.2,0-0.4,0-0.5-0.1c-0.2-0.1-0.3-0.2-0.5-0.3c-0.1-0.1-0.2-0.3-0.3-0.5
							c-0.1-0.2-0.1-0.4-0.1-0.5s0-0.4,0.1-0.5c0.1-0.2,0.2-0.3,0.3-0.5s0.3-0.2,0.5-0.3c0.2-0.1,0.4-0.1,0.5-0.1s0.4,0,0.5,0.1
							c0.2,0.1,0.3,0.2,0.5,0.3c0.1,0.1,0.2,0.3,0.3,0.5c0.1,0.2,0.1,0.4,0.1,0.5s0,0.4-0.1,0.5c-0.1,0.2-0.2,0.3-0.3,0.5
							c-0.1,0.1-0.3,0.2-0.5,0.3C121.4,105.1,121.2,105.2,121,105.2z M121,121.5c-0.2,0-0.4,0-0.5-0.1c-0.2-0.1-0.3-0.2-0.5-0.3
							s-0.2-0.3-0.3-0.5c-0.1-0.2-0.1-0.4-0.1-0.5c0-0.2,0-0.4,0.1-0.5c0.1-0.2,0.2-0.3,0.3-0.5s0.3-0.2,0.5-0.3
							c0.2-0.1,0.4-0.1,0.5-0.1s0.4,0,0.5,0.1c0.2,0.1,0.3,0.2,0.5,0.3c0.1,0.1,0.2,0.3,0.3,0.5c0.1,0.2,0.1,0.4,0.1,0.5
							c0,0.2,0,0.4-0.1,0.5c-0.1,0.2-0.2,0.3-0.3,0.5c-0.1,0.1-0.3,0.2-0.5,0.3C121.4,121.4,121.2,121.5,121,121.5z M121,137.8
							c-0.2,0-0.4,0-0.5-0.1c-0.2-0.1-0.3-0.2-0.5-0.3c-0.1-0.1-0.2-0.3-0.3-0.5c-0.1-0.2-0.1-0.4-0.1-0.5s0-0.4,0.1-0.5
							c0.1-0.2,0.2-0.3,0.3-0.5s0.3-0.2,0.5-0.3c0.2-0.1,0.4-0.1,0.5-0.1s0.4,0,0.5,0.1c0.2,0.1,0.3,0.2,0.5,0.3
							c0.1,0.1,0.2,0.3,0.3,0.5c0.1,0.2,0.1,0.4,0.1,0.5s0,0.4-0.1,0.5c-0.1,0.2-0.2,0.3-0.3,0.5c-0.1,0.1-0.3,0.2-0.5,0.3
							C121.4,137.8,121.2,137.8,121,137.8z M121,154.1c-0.2,0-0.4,0-0.5-0.1c-0.2-0.1-0.3-0.2-0.5-0.3s-0.2-0.3-0.3-0.5
							c-0.1-0.2-0.1-0.4-0.1-0.5c0-0.2,0-0.4,0.1-0.5c0.1-0.2,0.2-0.3,0.3-0.5c0.1-0.1,0.3-0.2,0.5-0.3c0.2-0.1,0.4-0.1,0.5-0.1
							s0.4,0,0.5,0.1c0.2,0.1,0.3,0.2,0.5,0.3c0.1,0.1,0.2,0.3,0.3,0.5c0.1,0.2,0.1,0.4,0.1,0.5c0,0.2,0,0.4-0.1,0.5
							c-0.1,0.2-0.2,0.3-0.3,0.5c-0.1,0.1-0.3,0.2-0.5,0.3C121.4,154.1,121.2,154.1,121,154.1z M121,170.4c-0.2,0-0.4,0-0.5-0.1
							c-0.2-0.1-0.3-0.2-0.5-0.3s-0.2-0.3-0.3-0.5c-0.1-0.2-0.1-0.4-0.1-0.5c0-0.2,0-0.4,0.1-0.5c0.1-0.2,0.2-0.3,0.3-0.5
							s0.3-0.2,0.5-0.3c0.2-0.1,0.4-0.1,0.5-0.1s0.4,0,0.5,0.1c0.2,0.1,0.3,0.2,0.5,0.3c0.1,0.1,0.2,0.3,0.3,0.5
							c0.1,0.2,0.1,0.4,0.1,0.5c0,0.2,0,0.4-0.1,0.5c-0.1,0.2-0.2,0.3-0.3,0.5c-0.1,0.1-0.3,0.2-0.5,0.3
							C121.4,170.4,121.2,170.4,121,170.4z M121,186.7c-0.2,0-0.4,0-0.5-0.1c-0.2-0.1-0.3-0.2-0.5-0.3s-0.2-0.3-0.3-0.5
							c-0.1-0.2-0.1-0.4-0.1-0.5s0-0.4,0.1-0.5c0.1-0.2,0.2-0.3,0.3-0.5c0.1-0.1,0.3-0.2,0.5-0.3c0.2-0.1,0.4-0.1,0.5-0.1
							s0.4,0,0.5,0.1c0.2,0.1,0.3,0.2,0.5,0.3c0.1,0.1,0.2,0.3,0.3,0.5c0.1,0.2,0.1,0.4,0.1,0.5s0,0.4-0.1,0.5
							c-0.1,0.2-0.2,0.3-0.3,0.5c-0.1,0.1-0.3,0.2-0.5,0.3C121.4,186.7,121.2,186.7,121,186.7z M114.9,64.7c-0.2,0-0.4,0-0.5-0.1
							c-0.2-0.1-0.3-0.2-0.5-0.3s-0.2-0.3-0.3-0.5c-0.1-0.2-0.1-0.4-0.1-0.5c0-0.2,0-0.4,0.1-0.5c0.1-0.2,0.2-0.3,0.3-0.5
							s0.3-0.2,0.5-0.3c0.2-0.1,0.4-0.1,0.5-0.1c0.2,0,0.4,0,0.5,0.1c0.2,0.1,0.3,0.2,0.5,0.3s0.2,0.3,0.3,0.5
							c0.1,0.2,0.1,0.4,0.1,0.5c0,0.2,0,0.4-0.1,0.5c-0.1,0.2-0.2,0.3-0.3,0.5s-0.3,0.2-0.5,0.3C115.3,64.6,115.1,64.7,114.9,64.7z
							 M114.9,81c-0.2,0-0.4,0-0.5-0.1c-0.2-0.1-0.3-0.2-0.5-0.3c-0.1-0.1-0.2-0.3-0.3-0.5c-0.1-0.2-0.1-0.4-0.1-0.5
							c0-0.2,0-0.4,0.1-0.5c0.1-0.2,0.2-0.3,0.3-0.5s0.3-0.2,0.5-0.3c0.2-0.1,0.4-0.1,0.5-0.1c0.2,0,0.4,0,0.5,0.1
							c0.2,0.1,0.3,0.2,0.5,0.3s0.2,0.3,0.3,0.5c0.1,0.2,0.1,0.4,0.1,0.5c0,0.2,0,0.4-0.1,0.5c-0.1,0.2-0.2,0.3-0.3,0.5
							c-0.1,0.1-0.3,0.2-0.5,0.3C115.3,80.9,115.1,81,114.9,81z M114.9,97.3c-0.2,0-0.4,0-0.5-0.1c-0.2-0.1-0.3-0.2-0.5-0.3
							s-0.2-0.3-0.3-0.5c-0.1-0.2-0.1-0.4-0.1-0.5s0-0.4,0.1-0.5c0.1-0.2,0.2-0.3,0.3-0.5c0.1-0.1,0.3-0.2,0.5-0.3
							c0.2-0.1,0.4-0.1,0.5-0.1c0.2,0,0.4,0,0.5,0.1c0.2,0.1,0.3,0.2,0.5,0.3c0.1,0.1,0.2,0.3,0.3,0.5c0.1,0.2,0.1,0.4,0.1,0.5
							s0,0.4-0.1,0.5c-0.1,0.2-0.2,0.3-0.3,0.5s-0.3,0.2-0.5,0.3C115.3,97.2,115.1,97.3,114.9,97.3z M114.9,113.6
							c-0.2,0-0.4,0-0.5-0.1c-0.2-0.1-0.3-0.2-0.5-0.3s-0.2-0.3-0.3-0.5c-0.1-0.2-0.1-0.4-0.1-0.5c0-0.2,0-0.4,0.1-0.5
							c0.1-0.2,0.2-0.3,0.3-0.5s0.3-0.2,0.5-0.3c0.2-0.1,0.4-0.1,0.5-0.1c0.2,0,0.4,0,0.5,0.1s0.3,0.2,0.5,0.3s0.2,0.3,0.3,0.5
							c0.1,0.2,0.1,0.4,0.1,0.5c0,0.2,0,0.4-0.1,0.5c-0.1,0.2-0.2,0.3-0.3,0.5s-0.3,0.2-0.5,0.3
							C115.3,113.6,115.1,113.6,114.9,113.6z M114.9,129.9c-0.2,0-0.4,0-0.5-0.1c-0.2-0.1-0.3-0.2-0.5-0.3s-0.2-0.3-0.3-0.5
							c-0.1-0.2-0.1-0.4-0.1-0.5s0-0.4,0.1-0.5c0.1-0.2,0.2-0.3,0.3-0.5c0.1-0.1,0.3-0.2,0.5-0.3c0.2-0.1,0.4-0.1,0.5-0.1
							c0.2,0,0.4,0,0.5,0.1c0.2,0.1,0.3,0.2,0.5,0.3c0.1,0.1,0.2,0.3,0.3,0.5c0.1,0.2,0.1,0.4,0.1,0.5s0,0.4-0.1,0.5
							c-0.1,0.2-0.2,0.3-0.3,0.5s-0.3,0.2-0.5,0.3C115.3,129.9,115.1,129.9,114.9,129.9z M114.9,146.2c-0.2,0-0.4,0-0.5-0.1
							c-0.2-0.1-0.3-0.2-0.5-0.3s-0.2-0.3-0.3-0.5c-0.1-0.2-0.1-0.4-0.1-0.5c0-0.2,0-0.4,0.1-0.5c0.1-0.2,0.2-0.3,0.3-0.5
							s0.3-0.2,0.5-0.3c0.2-0.1,0.4-0.1,0.5-0.1c0.2,0,0.4,0,0.5,0.1c0.2,0.1,0.3,0.2,0.5,0.3s0.2,0.3,0.3,0.5
							c0.1,0.2,0.1,0.4,0.1,0.5c0,0.2,0,0.4-0.1,0.5c-0.1,0.2-0.2,0.3-0.3,0.5s-0.3,0.2-0.5,0.3
							C115.3,146.2,115.1,146.2,114.9,146.2z M114.9,162.5c-0.2,0-0.4,0-0.5-0.1c-0.2-0.1-0.3-0.2-0.5-0.3c-0.1-0.1-0.2-0.3-0.3-0.5
							c-0.1-0.2-0.1-0.4-0.1-0.5s0-0.4,0.1-0.5c0.1-0.2,0.2-0.3,0.3-0.5c0.1-0.1,0.3-0.2,0.5-0.3c0.2-0.1,0.4-0.1,0.5-0.1
							c0.2,0,0.4,0,0.5,0.1c0.2,0.1,0.3,0.2,0.5,0.3c0.1,0.1,0.2,0.3,0.3,0.5c0.1,0.2,0.1,0.4,0.1,0.5s0,0.4-0.1,0.5
							c-0.1,0.2-0.2,0.3-0.3,0.5c-0.1,0.1-0.3,0.2-0.5,0.3C115.3,162.5,115.1,162.5,114.9,162.5z M114.9,178.8c-0.2,0-0.4,0-0.5-0.1
							c-0.2-0.1-0.3-0.2-0.5-0.3s-0.2-0.3-0.3-0.5c-0.1-0.2-0.1-0.4-0.1-0.5c0-0.2,0-0.4,0.1-0.5c0.1-0.2,0.2-0.3,0.3-0.5
							s0.3-0.2,0.5-0.3c0.2-0.1,0.4-0.1,0.5-0.1c0.2,0,0.4,0,0.5,0.1c0.2,0.1,0.3,0.2,0.5,0.3s0.2,0.3,0.3,0.5
							c0.1,0.2,0.1,0.4,0.1,0.5c0,0.2,0,0.4-0.1,0.5c-0.1,0.2-0.2,0.3-0.3,0.5s-0.3,0.2-0.5,0.3
							C115.3,178.8,115.1,178.8,114.9,178.8z M108.3,72.5c-0.2,0-0.4,0-0.5-0.1c-0.2-0.1-0.3-0.2-0.5-0.3c-0.1-0.1-0.2-0.3-0.3-0.5
							c-0.1-0.2-0.1-0.4-0.1-0.5s0-0.4,0.1-0.5c0.1-0.2,0.2-0.3,0.3-0.5c0.1-0.1,0.3-0.2,0.5-0.3c0.2-0.1,0.4-0.1,0.5-0.1
							c0.2,0,0.4,0,0.5,0.1c0.2,0.1,0.3,0.2,0.5,0.3c0.1,0.1,0.2,0.3,0.3,0.5c0.1,0.2,0.1,0.4,0.1,0.5s0,0.4-0.1,0.5
							c-0.1,0.2-0.2,0.3-0.3,0.5c-0.1,0.1-0.3,0.2-0.5,0.3C108.7,72.5,108.5,72.5,108.3,72.5z M108.3,88.9c-0.2,0-0.4,0-0.5-0.1
							c-0.2-0.1-0.3-0.2-0.5-0.3s-0.2-0.3-0.3-0.5c-0.1-0.2-0.1-0.4-0.1-0.5c0-0.2,0-0.4,0.1-0.5c0.1-0.2,0.2-0.3,0.3-0.5
							s0.3-0.2,0.5-0.3c0.2-0.1,0.4-0.1,0.5-0.1c0.2,0,0.4,0,0.5,0.1c0.2,0.1,0.3,0.2,0.5,0.3s0.2,0.3,0.3,0.5
							c0.1,0.2,0.1,0.4,0.1,0.5c0,0.2,0,0.4-0.1,0.5c-0.1,0.2-0.2,0.3-0.3,0.5s-0.3,0.2-0.5,0.3C108.7,88.8,108.5,88.9,108.3,88.9z
							 M108.3,105.2c-0.2,0-0.4,0-0.5-0.1c-0.2-0.1-0.3-0.2-0.5-0.3c-0.1-0.1-0.2-0.3-0.3-0.5c-0.1-0.2-0.1-0.4-0.1-0.5
							s0-0.4,0.1-0.5c0.1-0.2,0.2-0.3,0.3-0.5s0.3-0.2,0.5-0.3c0.2-0.1,0.4-0.1,0.5-0.1c0.2,0,0.4,0,0.5,0.1
							c0.2,0.1,0.3,0.2,0.5,0.3s0.2,0.3,0.3,0.5c0.1,0.2,0.1,0.4,0.1,0.5s0,0.4-0.1,0.5c-0.1,0.2-0.2,0.3-0.3,0.5
							c-0.1,0.1-0.3,0.2-0.5,0.3C108.7,105.1,108.5,105.2,108.3,105.2z M108.3,121.5c-0.2,0-0.4,0-0.5-0.1c-0.2-0.1-0.3-0.2-0.5-0.3
							s-0.2-0.3-0.3-0.5c-0.1-0.2-0.1-0.4-0.1-0.5c0-0.2,0-0.4,0.1-0.5c0.1-0.2,0.2-0.3,0.3-0.5s0.3-0.2,0.5-0.3
							c0.2-0.1,0.4-0.1,0.5-0.1c0.2,0,0.4,0,0.5,0.1c0.2,0.1,0.3,0.2,0.5,0.3s0.2,0.3,0.3,0.5c0.1,0.2,0.1,0.4,0.1,0.5
							c0,0.2,0,0.4-0.1,0.5c-0.1,0.2-0.2,0.3-0.3,0.5s-0.3,0.2-0.5,0.3S108.5,121.5,108.3,121.5z M108.3,137.8c-0.2,0-0.4,0-0.5-0.1
							c-0.2-0.1-0.3-0.2-0.5-0.3c-0.1-0.1-0.2-0.3-0.3-0.5c-0.1-0.2-0.1-0.4-0.1-0.5s0-0.4,0.1-0.5c0.1-0.2,0.2-0.3,0.3-0.5
							s0.3-0.2,0.5-0.3c0.2-0.1,0.4-0.1,0.5-0.1c0.2,0,0.4,0,0.5,0.1c0.2,0.1,0.3,0.2,0.5,0.3s0.2,0.3,0.3,0.5
							c0.1,0.2,0.1,0.4,0.1,0.5s0,0.4-0.1,0.5c-0.1,0.2-0.2,0.3-0.3,0.5c-0.1,0.1-0.3,0.2-0.5,0.3
							C108.7,137.8,108.5,137.8,108.3,137.8z M108.3,154.1c-0.2,0-0.4,0-0.5-0.1c-0.2-0.1-0.3-0.2-0.5-0.3s-0.2-0.3-0.3-0.5
							c-0.1-0.2-0.1-0.4-0.1-0.5c0-0.2,0-0.4,0.1-0.5c0.1-0.2,0.2-0.3,0.3-0.5c0.1-0.1,0.3-0.2,0.5-0.3c0.2-0.1,0.4-0.1,0.5-0.1
							c0.2,0,0.4,0,0.5,0.1c0.2,0.1,0.3,0.2,0.5,0.3c0.1,0.1,0.2,0.3,0.3,0.5c0.1,0.2,0.1,0.4,0.1,0.5c0,0.2,0,0.4-0.1,0.5
							c-0.1,0.2-0.2,0.3-0.3,0.5s-0.3,0.2-0.5,0.3C108.7,154.1,108.5,154.1,108.3,154.1z M108.3,170.4c-0.2,0-0.4,0-0.5-0.1
							c-0.2-0.1-0.3-0.2-0.5-0.3s-0.2-0.3-0.3-0.5c-0.1-0.2-0.1-0.4-0.1-0.5c0-0.2,0-0.4,0.1-0.5c0.1-0.2,0.2-0.3,0.3-0.5
							s0.3-0.2,0.5-0.3c0.2-0.1,0.4-0.1,0.5-0.1c0.2,0,0.4,0,0.5,0.1c0.2,0.1,0.3,0.2,0.5,0.3s0.2,0.3,0.3,0.5
							c0.1,0.2,0.1,0.4,0.1,0.5c0,0.2,0,0.4-0.1,0.5c-0.1,0.2-0.2,0.3-0.3,0.5s-0.3,0.2-0.5,0.3
							C108.7,170.4,108.5,170.4,108.3,170.4z M108.3,186.7c-0.2,0-0.4,0-0.5-0.1c-0.2-0.1-0.3-0.2-0.5-0.3s-0.2-0.3-0.3-0.5
							c-0.1-0.2-0.1-0.4-0.1-0.5s0-0.4,0.1-0.5c0.1-0.2,0.2-0.3,0.3-0.5c0.1-0.1,0.3-0.2,0.5-0.3c0.2-0.1,0.4-0.1,0.5-0.1
							c0.2,0,0.4,0,0.5,0.1c0.2,0.1,0.3,0.2,0.5,0.3c0.1,0.1,0.2,0.3,0.3,0.5c0.1,0.2,0.1,0.4,0.1,0.5s0,0.4-0.1,0.5
							c-0.1,0.2-0.2,0.3-0.3,0.5s-0.3,0.2-0.5,0.3C108.7,186.7,108.5,186.7,108.3,186.7z M102.2,64.7c-0.2,0-0.4,0-0.5-0.1
							c-0.2-0.1-0.3-0.2-0.5-0.3s-0.2-0.3-0.3-0.5c-0.1-0.2-0.1-0.4-0.1-0.5c0-0.2,0-0.4,0.1-0.5c0.1-0.2,0.2-0.3,0.3-0.5
							s0.3-0.2,0.5-0.3c0.2-0.1,0.4-0.1,0.5-0.1c0.2,0,0.4,0,0.5,0.1c0.2,0.1,0.3,0.2,0.5,0.3s0.2,0.3,0.3,0.5
							c0.1,0.2,0.1,0.4,0.1,0.5c0,0.2,0,0.4-0.1,0.5c-0.1,0.2-0.2,0.3-0.3,0.5s-0.3,0.2-0.5,0.3C102.6,64.6,102.4,64.7,102.2,64.7z
							 M102.2,81c-0.2,0-0.4,0-0.5-0.1c-0.2-0.1-0.3-0.2-0.5-0.3c-0.1-0.1-0.2-0.3-0.3-0.5c-0.1-0.2-0.1-0.4-0.1-0.5
							c0-0.2,0-0.4,0.1-0.5c0.1-0.2,0.2-0.3,0.3-0.5s0.3-0.2,0.5-0.3c0.2-0.1,0.4-0.1,0.5-0.1c0.2,0,0.4,0,0.5,0.1
							c0.2,0.1,0.3,0.2,0.5,0.3s0.2,0.3,0.3,0.5c0.1,0.2,0.1,0.4,0.1,0.5c0,0.2,0,0.4-0.1,0.5c-0.1,0.2-0.2,0.3-0.3,0.5
							c-0.1,0.1-0.3,0.2-0.5,0.3C102.6,80.9,102.4,81,102.2,81z M102.2,97.3c-0.2,0-0.4,0-0.5-0.1c-0.2-0.1-0.3-0.2-0.5-0.3
							s-0.2-0.3-0.3-0.5c-0.1-0.2-0.1-0.4-0.1-0.5s0-0.4,0.1-0.5c0.1-0.2,0.2-0.3,0.3-0.5c0.1-0.1,0.3-0.2,0.5-0.3
							c0.2-0.1,0.4-0.1,0.5-0.1c0.2,0,0.4,0,0.5,0.1c0.2,0.1,0.3,0.2,0.5,0.3c0.1,0.1,0.2,0.3,0.3,0.5c0.1,0.2,0.1,0.4,0.1,0.5
							s0,0.4-0.1,0.5c-0.1,0.2-0.2,0.3-0.3,0.5s-0.3,0.2-0.5,0.3C102.6,97.2,102.4,97.3,102.2,97.3z M102.2,113.6
							c-0.2,0-0.4,0-0.5-0.1c-0.2-0.1-0.3-0.2-0.5-0.3s-0.2-0.3-0.3-0.5c-0.1-0.2-0.1-0.4-0.1-0.5c0-0.2,0-0.4,0.1-0.5
							c0.1-0.2,0.2-0.3,0.3-0.5s0.3-0.2,0.5-0.3s0.4-0.1,0.5-0.1c0.2,0,0.4,0,0.5,0.1c0.2,0.1,0.3,0.2,0.5,0.3s0.2,0.3,0.3,0.5
							c0.1,0.2,0.1,0.4,0.1,0.5c0,0.2,0,0.4-0.1,0.5c-0.1,0.2-0.2,0.3-0.3,0.5s-0.3,0.2-0.5,0.3
							C102.6,113.6,102.4,113.6,102.2,113.6z M102.2,129.9c-0.2,0-0.4,0-0.5-0.1c-0.2-0.1-0.3-0.2-0.5-0.3s-0.2-0.3-0.3-0.5
							c-0.1-0.2-0.1-0.4-0.1-0.5s0-0.4,0.1-0.5c0.1-0.2,0.2-0.3,0.3-0.5c0.1-0.1,0.3-0.2,0.5-0.3c0.2-0.1,0.4-0.1,0.5-0.1
							c0.2,0,0.4,0,0.5,0.1c0.2,0.1,0.3,0.2,0.5,0.3c0.1,0.1,0.2,0.3,0.3,0.5c0.1,0.2,0.1,0.4,0.1,0.5s0,0.4-0.1,0.5
							c-0.1,0.2-0.2,0.3-0.3,0.5s-0.3,0.2-0.5,0.3C102.6,129.9,102.4,129.9,102.2,129.9z M102.2,146.2c-0.2,0-0.4,0-0.5-0.1
							c-0.2-0.1-0.3-0.2-0.5-0.3s-0.2-0.3-0.3-0.5c-0.1-0.2-0.1-0.4-0.1-0.5c0-0.2,0-0.4,0.1-0.5c0.1-0.2,0.2-0.3,0.3-0.5
							s0.3-0.2,0.5-0.3c0.2-0.1,0.4-0.1,0.5-0.1c0.2,0,0.4,0,0.5,0.1c0.2,0.1,0.3,0.2,0.5,0.3s0.2,0.3,0.3,0.5
							c0.1,0.2,0.1,0.4,0.1,0.5c0,0.2,0,0.4-0.1,0.5c-0.1,0.2-0.2,0.3-0.3,0.5s-0.3,0.2-0.5,0.3
							C102.6,146.2,102.4,146.2,102.2,146.2z M102.2,162.5c-0.2,0-0.4,0-0.5-0.1c-0.2-0.1-0.3-0.2-0.5-0.3c-0.1-0.1-0.2-0.3-0.3-0.5
							c-0.1-0.2-0.1-0.4-0.1-0.5s0-0.4,0.1-0.5c0.1-0.2,0.2-0.3,0.3-0.5c0.1-0.1,0.3-0.2,0.5-0.3c0.2-0.1,0.4-0.1,0.5-0.1
							c0.2,0,0.4,0,0.5,0.1c0.2,0.1,0.3,0.2,0.5,0.3c0.1,0.1,0.2,0.3,0.3,0.5c0.1,0.2,0.1,0.4,0.1,0.5s0,0.4-0.1,0.5
							c-0.1,0.2-0.2,0.3-0.3,0.5c-0.1,0.1-0.3,0.2-0.5,0.3C102.6,162.5,102.4,162.5,102.2,162.5z M102.2,178.8c-0.2,0-0.4,0-0.5-0.1
							c-0.2-0.1-0.3-0.2-0.5-0.3s-0.2-0.3-0.3-0.5c-0.1-0.2-0.1-0.4-0.1-0.5c0-0.2,0-0.4,0.1-0.5c0.1-0.2,0.2-0.3,0.3-0.5
							s0.3-0.2,0.5-0.3c0.2-0.1,0.4-0.1,0.5-0.1c0.2,0,0.4,0,0.5,0.1c0.2,0.1,0.3,0.2,0.5,0.3s0.2,0.3,0.3,0.5
							c0.1,0.2,0.1,0.4,0.1,0.5c0,0.2,0,0.4-0.1,0.5c-0.1,0.2-0.2,0.3-0.3,0.5s-0.3,0.2-0.5,0.3
							C102.6,178.8,102.4,178.8,102.2,178.8z"/>
					</g>
				</g>
			</g>
		</g>
	</g>
</g>
<path class="st6" d="M336.3,212c-4.6,4.8-9.7,8.9-15.4,12.3c-5.1,3.1-10.6,5.6-16.4,7.4c-22.7,7.1-47.3,2.9-71,5.2
	c-10.2,1-20.2,3.1-29.9,6.5c-9.3,3.2-18.2,7.4-27.7,10.2c-1.6,0.5-3.2,0.9-4.9,1.3c-39.1,10.2-71.6,6-94.3-18.7
	c-3.7-4.1-6.8-8-9.2-11.8c-8.4-13.2-9.7-24.4-10.2-32.5c0-0.5-0.1-1-0.1-1.4c-1.5-34.3,9.4-61,45.7-79.7c17.6-9,37.1-15.2,56.1-19.3
	c15.5-3.3,34.8-4.6,45.5-18.8c8.2-10.9,18.3-21.8,30.5-28.8c6.6-3.8,13.7-6.5,21.4-7.4c40.8-5,53.6,19,56.5,42.4
	c1.4,11.6,0.4,23.1-0.9,30.8c-2.4,14.1,3.8,22.1,13,33.1c7.5,9,15.5,13.3,20.5,27.3C351,184.8,347.2,200.7,336.3,212z"/>
<defs>
	
		<filter id="Adobe_OpacityMaskFilter_00000080205202847676862800000009712569211258653828_" filterUnits="userSpaceOnUse" x="55" y="41" width="300" height="217">
		<feColorMatrix  type="matrix" values="1 0 0 0 0  0 1 0 0 0  0 0 1 0 0  0 0 0 1 0"/>
	</filter>
</defs>
<mask maskUnits="userSpaceOnUse" x="55" y="41" width="300" height="217" id="mask-1_00000060016517417969593180000011658352481387736459_">
	<g class="st0">
		<g>
			<rect x="-61.2" y="-135.2" class="st7" width="734.4" height="950.4"/>
		</g>
	</g>
</mask>
<g class="st8">
	<g transform="matrix(1, 0, 0, 1, 55, 97)">
		<g>
			<defs>
				<rect id="SVGID_00000121999779289173481700000001326578095745101233_" x="55" y="41" width="300" height="217"/>
			</defs>
			<clipPath id="SVGID_00000091715184698278522160000006945456480850854040_">
				<use xlink:href="#SVGID_00000121999779289173481700000001326578095745101233_"  style="overflow:visible;"/>
			</clipPath>
			<g id="source-8" style="clip-path:url(#SVGID_00000091715184698278522160000006945456480850854040_);">
				<g>
					<defs>
						<rect id="SVGID_00000171699551759071794480000009356234400414634922_" x="55.4" y="42" width="299.3" height="215"/>
					</defs>
					<clipPath id="SVGID_00000032637313075758542890000013679850895293979024_">
						<use xlink:href="#SVGID_00000171699551759071794480000009356234400414634922_"  style="overflow:visible;"/>
					</clipPath>
					<g style="clip-path:url(#SVGID_00000032637313075758542890000013679850895293979024_);">
						<path class="st11" d="M354.1,160.9c0,24.7-9.3,47.2-24.6,64.2c-17.5,19.5-43,31.8-71.3,31.8c-12.4,0-24.2-2.3-35.1-6.6
							c-5.6-2.2-11.9-2-17.4,0.7c-6.4,3.1-13.6,4.8-21.1,4.8c-3.1,0-6.2-0.3-9.1-0.9c-8.4-1.6-16.1-5.4-22.4-10.7c-4-3.4-9-5-14.2-5
							h-0.1c-17.2,0-33.1-5.2-46.3-14.1c-5.9-4-11.3-8.7-16-14.1s-8.7-11.3-11.9-17.7c-5.6-11.2-8.8-23.8-8.8-37.2
							c0-45.8,37.2-83,83-83c4.7,0,9.3,0.4,13.7,1.1c11.8-19.1,33-31.9,57.2-31.9c10.2,0,19.9,2.3,28.5,6.4
							c8.3,3.9,15.4,9.2,21.5,16.1c20.3,0.3,39.1,7,54.5,18.1C338.3,100.3,354.1,128.8,354.1,160.9z"/>
					</g>
				</g>
			</g>
		</g>
	</g>
</g>
<path class="st12" d="M156,121.3c0.7-0.2,1.4-0.6,1.9-1.1c-0.5-0.5-1.2-0.9-1.9-1.1c-0.2-0.7-0.6-1.4-1.1-1.9
	c-0.5,0.5-0.9,1.2-1.1,1.9c-0.7,0.2-1.4,0.6-1.9,1.1c0.5,0.5,1.2,0.9,1.9,1.1c0.2,0.7,0.6,1.4,1.1,1.9
	C155.4,122.7,155.8,122.1,156,121.3z M167.4,136.1c1.1-0.3,2-0.9,2.8-1.7c-0.8-0.8-1.7-1.4-2.8-1.7c-0.3-1.1-0.9-2-1.7-2.8
	c-0.8,0.8-1.4,1.7-1.7,2.8c-1.1,0.3-2,0.9-2.8,1.7c0.8,0.8,1.7,1.4,2.8,1.7c0.3,1.1,0.9,2,1.7,2.8
	C166.5,138.2,167.1,137.2,167.4,136.1z M284.9,73c-0.7-0.2-1.4-0.6-1.9-1.1c0.5-0.5,1.2-0.9,1.9-1.1c0.2-0.7,0.6-1.4,1.1-1.9
	c0.5,0.5,0.9,1.2,1.1,1.9c0.7,0.2,1.4,0.6,1.9,1.1c-0.5,0.5-1.2,0.9-1.9,1.1c-0.2,0.7-0.6,1.4-1.1,1.9
	C285.5,74.4,285.1,73.8,284.9,73z M273.5,87.8c-1.1-0.3-2-0.9-2.8-1.7c0.8-0.8,1.7-1.4,2.8-1.7c0.3-1.1,0.9-2,1.7-2.8
	c0.8,0.8,1.4,1.7,1.7,2.8c1.1,0.3,2,0.9,2.8,1.7c-0.8,0.8-1.7,1.4-2.8,1.7c-0.3,1.1-0.9,2-1.7,2.8C274.4,89.9,273.8,88.9,273.5,87.8
	z M107.2,132.8c0.5-0.1,0.9-0.4,1.2-0.7c-0.3-0.4-0.8-0.6-1.2-0.7c-0.1-0.5-0.4-0.9-0.7-1.2c-0.4,0.3-0.6,0.8-0.7,1.2
	c-0.5,0.1-0.9,0.4-1.2,0.7c0.3,0.4,0.8,0.6,1.2,0.7c0.1,0.5,0.4,0.9,0.7,1.2C106.8,133.7,107,133.3,107.2,132.8z M114.4,137.4
	c0.7-0.2,1.3-0.6,1.8-1.1c-0.5-0.5-1.1-0.9-1.8-1.1c-0.2-0.7-0.6-1.3-1.1-1.8c-0.5,0.5-0.9,1.1-1.1,1.8c-0.7,0.2-1.3,0.6-1.8,1.1
	c0.5,0.5,1.1,0.9,1.8,1.1c0.2,0.7,0.6,1.3,1.1,1.8C113.9,138.7,114.2,138.1,114.4,137.4z"/>
<path class="st12" d="M315.4,140.7c0.3,0.3,0.6,0.7,0.8,1c0.2,0.4,0.5,0.8,0.6,1.2c0.2,0.4,0.3,0.8,0.4,1.3c0.1,0.4,0.1,0.9,0.1,1.3
	c0,0.4,0,0.9-0.1,1.3s-0.2,0.9-0.4,1.3c-0.2,0.4-0.4,0.8-0.6,1.2s-0.5,0.7-0.8,1s-0.7,0.6-1,0.8c-0.4,0.2-0.8,0.5-1.2,0.6
	c-0.4,0.2-0.8,0.3-1.3,0.4c-0.4,0.1-0.9,0.1-1.3,0.1c-0.4,0-0.9,0-1.3-0.1s-0.9-0.2-1.3-0.4c-0.4-0.2-0.8-0.4-1.2-0.6
	s-0.7-0.5-1-0.8s-0.6-0.7-0.8-1s-0.5-0.8-0.6-1.2c-0.2-0.4-0.3-0.8-0.4-1.3s-0.1-0.9-0.1-1.3c0-0.4,0-0.9,0.1-1.3
	c0.1-0.4,0.2-0.9,0.4-1.3c0.2-0.4,0.4-0.8,0.6-1.2c0.2-0.4,0.5-0.7,0.8-1s0.7-0.6,1-0.8s0.8-0.5,1.2-0.6c0.4-0.2,0.8-0.3,1.3-0.4
	c0.4-0.1,0.9-0.1,1.3-0.1c0.4,0,0.9,0,1.3,0.1c0.4,0.1,0.9,0.2,1.3,0.4c0.4,0.2,0.8,0.4,1.2,0.6
	C314.7,140.1,315.1,140.4,315.4,140.7z"/>
<path class="st12" d="M316.5,160c0,0.3-0.1,0.6-0.2,0.8c-0.1,0.3-0.3,0.5-0.5,0.7c-0.2,0.2-0.4,0.4-0.7,0.5
	c-0.3,0.1-0.5,0.2-0.8,0.2c-0.3,0-0.6-0.1-0.8-0.2c-0.3-0.1-0.5-0.3-0.7-0.5c-0.2-0.2-0.4-0.4-0.5-0.7c-0.1-0.3-0.2-0.5-0.2-0.8
	s0.1-0.6,0.2-0.8c0.1-0.3,0.3-0.5,0.5-0.7s0.4-0.4,0.7-0.5c0.3-0.1,0.5-0.2,0.8-0.2c0.3,0,0.6,0.1,0.8,0.2c0.3,0.1,0.5,0.3,0.7,0.5
	s0.4,0.4,0.5,0.7C316.4,159.5,316.5,159.8,316.5,160z M303.3,159.7c0,0.3,0,0.6-0.1,0.8s-0.1,0.5-0.2,0.8c-0.1,0.3-0.2,0.5-0.4,0.7
	c-0.2,0.2-0.3,0.4-0.5,0.6c-0.2,0.2-0.4,0.4-0.6,0.5s-0.5,0.3-0.7,0.4c-0.3,0.1-0.5,0.2-0.8,0.2s-0.5,0.1-0.8,0.1
	c-0.3,0-0.6,0-0.8-0.1s-0.5-0.1-0.8-0.2c-0.3-0.1-0.5-0.2-0.7-0.4c-0.2-0.2-0.4-0.3-0.6-0.5c-0.2-0.2-0.4-0.4-0.5-0.6
	c-0.2-0.2-0.3-0.5-0.4-0.7c-0.1-0.3-0.2-0.5-0.2-0.8c-0.1-0.3-0.1-0.5-0.1-0.8c0-0.3,0-0.6,0.1-0.8c0.1-0.3,0.1-0.5,0.2-0.8
	c0.1-0.3,0.2-0.5,0.4-0.7c0.2-0.2,0.3-0.4,0.5-0.6c0.2-0.2,0.4-0.4,0.6-0.5c0.2-0.2,0.5-0.3,0.7-0.4c0.3-0.1,0.5-0.2,0.8-0.2
	s0.6-0.1,0.8-0.1c0.3,0,0.6,0,0.8,0.1s0.5,0.1,0.8,0.2c0.3,0.1,0.5,0.2,0.7,0.4s0.4,0.3,0.6,0.5c0.2,0.2,0.4,0.4,0.5,0.6
	c0.2,0.2,0.3,0.5,0.4,0.7c0.1,0.3,0.2,0.5,0.2,0.8S303.3,159.4,303.3,159.7z"/>
<path class="st13" d="M118.3,211.5c0,0,2.3-17-2.3-15.3C111.3,197.9,113.4,204.7,118.3,211.5z"/>
<path class="st13" d="M118.6,211.4c0,0-9.5-16.8-16.1-11C95.9,206.1,118.6,211.4,118.6,211.4z"/>
<path class="st14" d="M90.8,223.5h113.4l-1.4-5l-3.3-11.7c-2.4-8.3-10.6-13.5-19.1-12l-4.3,0.7c-0.3,0.1-0.6,0.1-0.9,0.1
	c-1,0-1.9-0.2-2.7-0.7s-1.5-1.1-2.1-1.9c-7.4-11.1-24-9.7-29.5,2.4l-0.7,1.6c-1.3,2.9-4.7,4.1-7.5,2.9l-4.3-1.9
	c-2.5-1.1-5.3-0.3-6.8,1.7c-0.6,0.8-1,1.6-1.1,2.6l-0.6,3.7c-0.2,0.9-0.5,1.7-1,2.4c-0.1,0.1-0.2,0.2-0.3,0.4c-0.9,1-2,1.7-3.3,1.9
	c-0.3,0.1-0.7,0.1-1,0.1c-1.1,0-2.2-0.3-3.1-0.9c-0.6-0.4-1.1-0.6-1.8-0.8c-0.6-0.2-1.3-0.2-1.9-0.1c-0.7,0.1-1.3,0.2-1.9,0.5
	c-0.6,0.3-1.1,0.7-1.6,1.1L90.8,223.5z"/>
<path class="st15" d="M113.8,223.5h90.4l-1.4-5c-4.5-4-10.6-6-16.9-4.9l-3.3,0.6l-1.8,0.3c-0.4,0.1-0.8,0.1-1.2,0.1
	c-0.8,0-1.7-0.1-2.4-0.4c-1.4-0.5-2.4-1.4-3.2-2.6c-1.1-1.7-2.4-3.1-3.9-4.4c-0.6-0.5-1.1-0.9-1.8-1.3c-3.3-2.2-7.1-3.3-10.9-3.3
	c-2.2,0-4.4,0.3-6.5,1c-5.1,1.6-9.7,5.3-12.2,10.9l-0.9,1.9c-1.6,3.5-5.6,5-9,3.4l-2.6-1.2l-2.5-1.1c-1.1-0.5-2.3-0.7-3.5-0.6
	c-2.9,0.3-5.6,2.5-6.1,5.7L113.8,223.5z"/>
<path class="st13" d="M187.5,203.1c0,0.4,0.1,0.7,0.2,1c0.1,0.3,0.3,0.6,0.6,0.9c0.2,0.3,0.5,0.4,0.9,0.6c0.3,0.1,0.7,0.2,1,0.2
	c0.4,0,0.7-0.1,1-0.2s0.6-0.3,0.9-0.6c0.2-0.2,0.4-0.5,0.6-0.9c0.1-0.3,0.2-0.7,0.2-1c0-0.3-0.1-0.7-0.2-1c-0.1-0.3-0.3-0.6-0.6-0.8
	s-0.5-0.4-0.8-0.6c-0.3-0.1-0.7-0.2-1-0.2c-0.3,0-0.7,0.1-1,0.2c-0.3,0.1-0.6,0.3-0.8,0.6s-0.4,0.5-0.6,0.8
	C187.6,202.4,187.5,202.7,187.5,203.1z M123.5,204.8c-3.4,4.5,1.7,9.6,6.1,6.1h0C133.1,206.4,128,201.4,123.5,204.8z M148,194.9
	c0,3.9,3.1,7,7,7s7-3.1,7-7s-3.1-7-7-7S148,191.1,148,194.9z"/>
<path class="st14" d="M158.8,221c0,0,9.1-11.4,4.9-12.2C159.6,208,158.2,213.9,158.8,221z"/>
<path class="st14" d="M158.8,221c0,0-5.7-15.4-12-11.4S158.8,221,158.8,221z"/>
<path class="st14" d="M158.8,221c0,0,21.1-2.6,15.8-5.9C169.3,211.8,158.8,221,158.8,221z"/>
<path class="st13" d="M73.6,222.9c0,0,6.4-22.4,1-32.4c-5.4-10.1-18-19-18-19s7.7,12.2,5.1,19.7c-2.6,7.5-7.8,24.8,0,31.7H73.6z"/>
<path class="st12" d="M66.1,184.9c1,3,1.7,6.1,2,9.3c0.4,3.2,0.5,6.3,0.2,9.5c-0.2,3.1-1,6.2-1.3,9.5c-0.2,1.6-0.3,3.2-0.3,4.8
	c0,0.8,0,1.6,0.1,2.4c0.1,0.8,0.1,1.6,0.6,2.4l0.1-0.1c-0.2-0.7-0.2-1.5-0.2-2.3c0-0.8,0.1-1.6,0.2-2.4c0.2-1.6,0.3-3.2,0.6-4.7
	l0.7-4.7l0.3-2.4c0.1-0.8,0.1-1.6,0.2-2.4c0.2-3.2-0.1-6.4-0.5-9.6C68.1,191,67.3,187.9,66.1,184.9L66.1,184.9z"/>
<path class="st15" d="M75.2,222.9c0,0-8.9-31.3-1.4-45.3c7.5-14,25.1-26.5,25.1-26.5s-10.7,17-7.1,27.5c3.6,10.5,10.9,34.6,0,44.3
	H75.2z"/>
<path class="st12" d="M85.7,169.9c-1.4,4.2-2.3,8.6-2.9,13c-0.5,4.4-0.7,8.8-0.3,13.3c0.3,4.4,1.4,8.7,1.9,13.2
	c0.2,2.2,0.4,4.5,0.4,6.7c0,1.1,0,2.2-0.1,3.4c-0.1,1.1-0.2,2.3-0.8,3.3l-0.1-0.1c0.3-1,0.3-2.2,0.3-3.2c0-1.1-0.1-2.2-0.2-3.3
	c-0.2-2.2-0.5-4.4-0.8-6.6l-1-6.6l-0.4-3.3c-0.1-1.1-0.2-2.2-0.2-3.4c-0.2-4.5,0.1-9,0.7-13.4c0.7-4.4,1.8-8.8,3.4-12.9L85.7,169.9z
	"/>
<path class="st14" d="M76,223.6c0,0,9.1-11.4,4.9-12.2C76.8,210.6,75.4,216.5,76,223.6z M76,223.6c0,0-5.7-15.4-12-11.4
	S76,223.6,76,223.6z M76,223.6c0,0,21.1-2.6,15.8-5.9C86.5,214.3,76,223.6,76,223.6z"/>
<path class="st16" d="M340.1,223c-18.7,20.8-45.8,33.8-75.9,33.9c-13.2,0-25.8-2.5-37.4-7c-6-2.3-12.7-2.1-18.5,0.7
	c-6.8,3.3-14.4,5.1-22.5,5.1c-3.3,0-6.6-0.3-9.7-0.9c-40.7,10.6-74.5,6.3-98.1-19.4c-3.9-4.2-7-8.4-9.5-12.3H340.1z"/>
<path class="st17" d="M360.8,29v205.4h-6.1V32.1l-82.2,23.4v169.8h-6.9V56.1c0-0.5,0.1-1.1,0.2-1.6s0.4-1,0.7-1.4s0.7-0.8,1.1-1.1
	s0.9-0.6,1.4-0.7l85.1-27.1C357.5,23.1,360.8,25.5,360.8,29z"/>
<path class="st13" d="M354.7,32.1v202.3l-82.2-9.1V55.5L354.7,32.1z"/>
<defs>
	
		<filter id="Adobe_OpacityMaskFilter_00000110434669196870775360000002793960139538785471_" filterUnits="userSpaceOnUse" x="271" y="23" width="79" height="216">
		<feColorMatrix  type="matrix" values="1 0 0 0 0  0 1 0 0 0  0 0 1 0 0  0 0 0 1 0"/>
	</filter>
</defs>
<mask maskUnits="userSpaceOnUse" x="271" y="23" width="79" height="216" id="mask-2_00000166670900617143570580000002110707253163482278_">
	<g class="st0">
		<g>
			<rect x="-61.2" y="-135.2" class="st18" width="734.4" height="950.4"/>
		</g>
	</g>
</mask>
<g class="st19">
	<g transform="matrix(1, 0, 0, 1, 271, 79)">
		<g>
			<defs>
				<rect id="SVGID_00000124162571856727766680000016935569659102700969_" x="271" y="23" width="79" height="216"/>
			</defs>
			<clipPath id="SVGID_00000084498014744720323920000006113108839495664772_">
				<use xlink:href="#SVGID_00000124162571856727766680000016935569659102700969_"  style="overflow:visible;"/>
			</clipPath>
			<g id="source-11" style="clip-path:url(#SVGID_00000084498014744720323920000006113108839495664772_);">
				<g>
					<defs>
						<rect id="SVGID_00000069359733160357317140000010480412339657257389_" x="272" y="24" width="77.2" height="215"/>
					</defs>
					<clipPath id="SVGID_00000041999397777603842470000017576959385542610855_">
						<use xlink:href="#SVGID_00000069359733160357317140000010480412339657257389_"  style="overflow:visible;"/>
					</clipPath>
					<g style="clip-path:url(#SVGID_00000041999397777603842470000017576959385542610855_);">
						<path class="st4" d="M349,24.2v214l-76-12.8l-0.4-0.1V55.5l76.3-31.3L349,24.2z"/>
					</g>
				</g>
			</g>
		</g>
	</g>
</g>
<defs>
	
		<filter id="Adobe_OpacityMaskFilter_00000103951828344412434110000010872608168477185945_" filterUnits="userSpaceOnUse" x="271" y="23" width="79" height="203">
		<feColorMatrix  type="matrix" values="1 0 0 0 0  0 1 0 0 0  0 0 1 0 0  0 0 0 1 0"/>
	</filter>
</defs>
<mask maskUnits="userSpaceOnUse" x="271" y="23" width="79" height="203" id="mask-3_00000127723271451278717760000010832639219848207246_">
	<g class="st0">
		<g>
			<rect x="-61.2" y="-135.2" class="st22" width="734.4" height="950.4"/>
		</g>
	</g>
</mask>
<g class="st23">
	<g transform="matrix(1, 0, 0, 1, 271, 79)">
		<g>
			<defs>
				<rect id="SVGID_00000036936121120754858480000013176485655760676777_" x="271" y="23" width="79" height="203"/>
			</defs>
			<clipPath id="SVGID_00000008843612373313817110000006754437128711762329_">
				<use xlink:href="#SVGID_00000036936121120754858480000013176485655760676777_"  style="overflow:visible;"/>
			</clipPath>
			<g id="source-14" style="clip-path:url(#SVGID_00000008843612373313817110000006754437128711762329_);">
				<g>
					<defs>
						<rect id="SVGID_00000106110859677908777680000013971578379351450296_" x="272" y="24" width="77.2" height="201.8"/>
					</defs>
					<clipPath id="SVGID_00000056387096839123681310000018027742864899457724_">
						<use xlink:href="#SVGID_00000106110859677908777680000013971578379351450296_"  style="overflow:visible;"/>
					</clipPath>
					<g style="clip-path:url(#SVGID_00000056387096839123681310000018027742864899457724_);">
						<path class="st12" d="M349,24.2v69l-76.5,89.7v-69.1l76.3-89.6L349,24.2z M349,109.9v26.2l-76,89.3l-0.4-0.1v-25.7L349,109.9z
							"/>
					</g>
				</g>
			</g>
		</g>
	</g>
</g>
<path class="st26" d="M283.3,90.4c-1.6,2.7-0.2,6.4-1.8,9.1c-0.6,1.1-1.7,1.9-2,3.1c-0.3,1,0.1,2.2,1,2.8s2,0.8,3,0.3
	c0.2-0.1,0.4-0.2,0.6-0.3c0.8-0.2,1.5,0.5,2.2,0.9c0.8,0.6,1.9,0.8,2.8,0.5c1.2-0.4,2-1.6,2.4-2.8c1.1-3.4,0.3-7.1-0.7-10.5
	c-0.5-1.7-1.3-3.6-3-4.2"/>
<path class="st27" d="M247,119.1c0,0.4-0.6,0.7-0.2,1.5c0.9,1.8,3.5,4.2,6.7,3.1c0.1,0,17.5,10.1,18.8,10.1s10.4-8.6,13.4-19.3
	c0.7-2.5,0.4-5.5-1.9-6.8c0,0-2,0.5-3.3,2.9c-2,3.7-7.9,16.1-9.2,16.5c-1.6-1.1-9.6-3.4-16-6.2c-1.4-0.6-2-1.1-2.5-2.1
	c-0.5-0.9-1.7-3.1-2.7-4.2c-0.3-0.4-0.5,2-0.3,2.3c0.2,0.5-2.7-0.4-3,0.6C246.7,117.8,247,118.9,247,119.1z"/>
<path class="st14" d="M284.4,107.3c-2.2,0.5-4.1,2-5.2,4c-0.3,0.5-0.5,1.1-0.7,1.6c-0.9,2.4-2.2,4.5-3.1,6.8c1.3,1,2.8,1.5,4.1,2
	c1.2,0.4,2.5,0.6,3.8,0.5c0.2,0,0.4,0,0.6-0.1c0.3-0.1,0.5-0.3,0.7-0.6c0.4-0.5,0.8-0.9,1.2-1.4c0.3-0.4,0.6-0.8,0.8-1.3
	c0.2-0.7,0-1.4-0.2-2.1"/>
<defs>
	
		<filter id="Adobe_OpacityMaskFilter_00000112599853036305239110000008795788896609690794_" filterUnits="userSpaceOnUse" x="277" y="112" width="7" height="11">
		<feColorMatrix  type="matrix" values="1 0 0 0 0  0 1 0 0 0  0 0 1 0 0  0 0 0 1 0"/>
	</filter>
</defs>
<mask maskUnits="userSpaceOnUse" x="277" y="112" width="7" height="11" id="mask-4_00000041292122617240387600000006509040678598001297_">
	<g class="st0">
		<g>
			<rect x="-61.2" y="-135.2" class="st7" width="734.4" height="950.4"/>
		</g>
	</g>
</mask>
<g class="st28">
	<g transform="matrix(1, 0, 0, 1, 277, 168)">
		<g>
			<defs>
				<rect id="SVGID_00000173144668568637317440000016191808321007745208_" x="277" y="112" width="7" height="11"/>
			</defs>
			<clipPath id="SVGID_00000072265723025848582570000014829180911040816793_">
				<use xlink:href="#SVGID_00000173144668568637317440000016191808321007745208_"  style="overflow:visible;"/>
			</clipPath>
			<g id="source-17" style="clip-path:url(#SVGID_00000072265723025848582570000014829180911040816793_);">
				<g>
					<defs>
						<rect id="SVGID_00000153682708594156296290000007505685094615459972_" x="277.4" y="113" width="6.5" height="9.8"/>
					</defs>
					<clipPath id="SVGID_00000179648477141971873960000017897743652934380185_">
						<use xlink:href="#SVGID_00000153682708594156296290000007505685094615459972_"  style="overflow:visible;"/>
					</clipPath>
					<g style="clip-path:url(#SVGID_00000179648477141971873960000017897743652934380185_);">
						<path class="st31" d="M282.1,113.8c0.1-0.1,0.2-0.2,0.3-0.3c0.2-0.1,0.5,0.1,0.6,0.3c0.1,0.2,0.1,0.5,0.1,0.7
							c0,1-0.2,1.9-0.4,2.8l0.3,5l0,0c-1.2,0.1-2.4-0.1-3.6-0.5c-0.5-0.2-1.1-0.4-1.7-0.6C278.4,118.3,280.3,116,282.1,113.8z"/>
					</g>
				</g>
			</g>
		</g>
	</g>
</g>
<path class="st27" d="M289.8,102.4c0,0,0.1,3.1-0.4,3.3c-0.9,0.4-2,0.6-2,0.6l0,6.4l8.6-1.3l5.9-3.3c0,0-6.1-2-6.2-2.6s0.3-4,0.3-4
	 M303,195.4L303,195.4c2.4,11.1,1.2,26.4,1.8,34.8c-0.1,0-3.2,0.4-3.2,0.4s-7.2-35.2-8.6-42c-0.1-0.4-0.1-0.9-0.2-1.3
	c-0.3-5.1,4.3-5.3,6.8-1.1c0.4,0.7,0.8,1.5,1.2,2.3c0.1,0.3,0.3,0.7,0.4,1v0c0.4,1.2,0.8,2.3,1.1,3.5l0,0.1c0.1,0.4,0.2,0.7,0.3,1.1
	l0,0.1C302.8,194.6,302.9,195,303,195.4z"/>
<path class="st27" d="M289.3,155.5c0.1,0.9,0.6,5.3,1.2,10.5c0.5,4.3,1.1,9.2,1.5,13.1c0.3,2.9,0.6,5.2,0.6,6.3
	c0.1,0.7,0.1,1.3,0.3,1.9v0c1.1,5.1,4.6,5.4,6.7,4.2c0.3-0.2,0.6-0.3,0.8-0.6c0.5-0.4,0.8-1,0.9-1.5v0c0.1-1,0.3-2.5,0.4-4.2v0
	c0,0,0,0,0,0l0,0c0.3-3.3,0.5-7.5,0.7-11.7c0.2-5.1,0.4-10,0.4-12.7c0-0.2,0-0.3,0-0.5c0-8.5-7.7-13.9-12.6-11.2
	c-0.1,0-0.1,0.1-0.2,0.1c-0.1,0-0.1,0.1-0.2,0.1c-0.6,0.4-0.7,1.6-0.7,3.1C289.1,153.4,289.2,154.5,289.3,155.5z"/>
<path class="st27" d="M301.1,187.4l0.6-2.2c0,0,0,0,0,0c0,0.5-0.1,4.1,0.7,7.7l0,0.1c0.1,0.3,0.2,0.7,0.3,1.1l0,0.1
	c0.2,0.6,0.2,0.9,0.2,1.1l0,0c0,1-2.1-3.5-2.6-4.5c0-0.1-0.1-0.1-0.1-0.2l0.6-2.3L301.1,187.4z M284.4,197.5L284.4,197.5
	c0.2,11.7-3.4,25.3-4.3,33.8c-0.1,0-2.9-0.4-2.9-0.4s-0.5-35.6-0.6-42.7c0-0.5,0-0.9,0.1-1.3c0.6-5.1,4.7-4.2,6.3,0.6
	c0.3,0.8,0.5,1.6,0.7,2.5c0.1,0.4,0.1,0.7,0.2,1.1v0c0.2,1.3,0.3,2.5,0.4,3.8v0.1c0,0.4,0.1,0.8,0.1,1.1l0,0.1
	C284.3,196.7,284.3,197.1,284.4,197.5z"/>
<path class="st27" d="M281.9,192.7c0.3-0.1,0.6-0.2,0.8-0.4c0.5-0.3,0.9-0.8,1.1-1.3v0c0.3-1,0.7-2.4,1.1-4.1c0,0,0,0,0,0l0,0
	c0.8-3.2,1.7-7.4,2.6-11.4c1.1-5,2-9.8,2.5-12.6c0-0.1,0.5-2.1,0.5-2.3c1.5-8.5-5.1-14-10-12.4c-0.1,0-0.1,0-0.2,0.1
	c-1,0.4-1.2,3.8-1.5,6.1s-1.9,26.2-2.3,30.5c-0.1,0.6-0.1,1.3-0.1,1.9C276.7,192.2,279.8,193.4,281.9,192.7z"/>
<path class="st27" d="M284,189.1l0.9-2.1c0,0,0,0,0,0c-0.1,0.5-0.8,4-0.6,7.9v0.1c0,0.4,0,0.8,0.1,1.1l0,0.1c0.1,0.6,0.1,1,0,1.2v0
	c-0.2,1-1.3-4-1.6-5.1c0-0.1-0.1-0.2-0.1-0.2l0.9-2.2L284,189.1z"/>
<path class="st26" d="M298.8,139.2c0,0,6.2,7.9,5.6,15.9c-0.3,3.3-0.7,6.2-1.1,9.6c-0.1,0.5-0.5,21.9-0.3,21.9c0,0,0.7,5.6,2.7,37.8
	c0.3,4.6-4.1,4.6-5.6,4.6c-0.2,0-9.8-55.4-10-55.4c-0.2,0-1.4,8.5-3,18.8c-2.3,15.8-5.3,37.1-5.6,37.1c-3.6-0.2-1.9,0.3-5.8-1.3
	c0-0.8-1.3-75.8,7.4-89.9C291.3,139.3,298.8,139.2,298.8,139.2z"/>
<path class="st14" d="M279.2,120.9c0.1,2.3,1.3,3.7,3,5.6c0.2,0.3,0.8,5.4,0.9,8.8c0.1,1.8-0.7,2.8,0,3c2.5,2.2,11.5,3.9,15.6,1
	c-0.4-3.7,1.2-11.7,2.3-15.8c0.2-0.6,0.3-1.2,0.5-1.6c1-3.1,2.9-13.1,1.5-13.5c-0.3-0.1-0.7-0.2-1.2-0.3c-2.2-0.6-5.3-1.8-5.3-1.8
	s-1.9,5.5-6.7,6.2c-2.7-1.1-2.4-4.4-2.4-6c-0.9,0.2-1.2,0.5-3.9,1.3c-0.8,1.1-0.1,3.4-1.3,6.7C281.9,115.2,279.2,118.1,279.2,120.9z
	"/>
<path class="st27" d="M284.8,88.6c0,0-1.6,7.1-0.6,10.3c0.8,2.3,3.9,4.5,6.5,4.5c7.2,0,8.5-9.7,8.4-10.2c0-0.5-10.6-4.6-10.6-4.6
	L284.8,88.6z M334.8,116.6l-2.3-2.8l-14.3,12.8c0,0-7-9.3-8.9-12.2c-2.1-3.2-4-5.9-7.1-6.5c-0.7,0.4,0.2,11.9,0.6,12.2
	c4.3,3.2,12.7,13.7,15.4,14.2C321.2,134.9,334.8,116.6,334.8,116.6z"/>
<path class="st14" d="M301,107.4c0,0,2.9,0,4.2,1.1s7.3,10.6,7.3,10.6s0.2,1.8-1.6,3.3c-1.9,1.6-4.3,1.9-4.3,1.9s-3-3-4.7-4.4
	c-1.1-0.9-1.2,1.3-1.2,1.3l-5.3-5.2L301,107.4z"/>
<path class="st27" d="M328.8,117.1c0,0,3.4-2.7,3.6-3.4c0.2-0.7,0.3-1.5,0.6-2.2c0.4-1.1,1.3-1.9,2.3-2.3c0.8-0.3,0.4-0.6,1.3-0.5
	c1.4,0.3,2,1.6,2.6,2.6c2.3,4.5-4,5.3-4.3,5.3c-0.5,0-2.8,2.7-2.8,2.7"/>
<path class="st27" d="M338.9,112.8c0.2-1.3-0.1-2.5-0.8-3.5c-0.2-0.3-0.5-0.6-0.8-0.9c-0.1-0.1-0.3-0.3-0.5-0.3
	c-0.3-0.1-0.7,0-1.1,0.2c-0.4,0.2-0.7,0.5-0.9,0.9c-0.2,0.6,0.2,1.1,0.7,1.4c0,0,0.1,0.1,0.1,0.1c0,0.1,0,0.2-0.1,0.3
	c-0.2,0.4-0.4,0.8-0.3,1.1c0,0.2,0.1,0.4,0.3,0.5c0.2,0.1,0.3,0.2,0.5,0.1c0.2,0,0.4-0.1,0.5,0c0,0,0,0.1,0,0.1c0,0.4,0.1,0.7,0.3,1
	c0.1,0.1,0.1,0.1,0.2,0.1c0.1,0,0.2,0,0.2,0c0.3-0.1,0.5-0.2,0.8-0.4"/>
<path class="st27" d="M332.4,113.8c0.1-0.5,0.3-1.3,0.3-1.8c0.1-1.4,0.8-2.7,1.9-3.4c0.1-0.1,0.2-0.1,0.3-0.1c0.1,0,0.2,0.2,0.3,0.3
	c0,0.1,0,0.3-0.1,0.4c-0.1,0.4-0.7,1.2-0.6,1.7c0.3,0.7,0.5,1.4,0.5,2.1c0,0.6-0.3,1.7-1.1,1.8"/>
<path class="st17" d="M340.5,125.8h-0.1c-3.5,0-6.3-2.8-6.3-6.3v-12.5c0-3.5,2.8-6.3,6.3-6.3v3c-0.4,0-0.9,0.1-1.3,0.2
	c-0.4,0.2-0.8,0.4-1.1,0.7s-0.5,0.7-0.7,1.1s-0.3,0.8-0.3,1.3v12.5c0,0.4,0.1,0.9,0.3,1.3c0.2,0.4,0.4,0.8,0.7,1.1s0.7,0.5,1.1,0.7
	c0.4,0.2,0.8,0.2,1.3,0.2h0.1V125.8z"/>
<path class="st13" d="M341.8,102.4c0,1.8-0.5,3.2-1,3.2c-0.6,0-1-1.4-1-3.2s0.5-3.2,1-3.2C341.4,99.1,341.8,100.6,341.8,102.4z"/>
<path class="st17" d="M341.3,102.4c0,1.8-0.5,3.2-1,3.2c-0.6,0-1-1.4-1-3.2s0.5-3.2,1-3.2C340.8,99.1,341.3,100.6,341.3,102.4z"/>
<path class="st13" d="M341.8,124c0,1.8-0.5,3.2-1,3.2c-0.6,0-1-1.4-1-3.2c0-1.8,0.5-3.2,1-3.2C341.4,120.8,341.8,122.3,341.8,124z"
	/>
<path class="st17" d="M341.3,124c0,1.8-0.5,3.2-1,3.2c-0.6,0-1-1.4-1-3.2c0-1.8,0.5-3.2,1-3.2C340.8,120.8,341.3,122.3,341.3,124z"
	/>
<path class="st26" d="M301.2,229.5l3.9-1.1l0.6,4.4l-10.6,3.3L301.2,229.5z M276.7,230.6l4.1-0.1l-0.5,4.4l-11.1,0.6L276.7,230.6z
	 M305.2,100.6c-0.5-0.9-1.4-1.5-2-2.3c-0.8-1.1-1.1-2.5-1.2-3.9s0-2.8-0.3-4.1c-0.5-2.3-1.2-4.5-2.9-6c-2.8-2.3-8.2-3.7-11.3-1.4
	c-0.9-0.9-3.8-3.5-5.7,0.1c-1,1.8-1,3-0.7,3.9c-0.1,0.2-0.1,0.5-0.1,0.7c0.1,0.9,1.2,2.4,1.9,2.8c0.3,0.2,0.7,0.2,1.1,0.2
	c1.2,0,2.2-0.8,3.4-0.6c0.6,0.1,1.1,0.4,1.5,0.8c0.4,0.5,0.4,1.3,0.9,1.8c0.5,0.5,1.1,0.6,1.7,0.8c0.2,0.7,0.4,1.4,0.7,2.2
	c0.5,1.4,0.8,2.7,0.9,3.7c0-0.3-0.1-0.6-0.1-0.9c-0.2-1.5-0.3-3.2-0.4-4.7c0.1,0,0.2,0.1,0.2,0.1c0.2,0.1,0.3,0.2,0.4,0.3
	c0.1,0.2,0.1,0.3,0.1,0.5l0.1,1.5c0.5-0.2,0.5-0.9,0.9-1.2c0.4-0.3,1-0.2,1.4,0.1c0.4,0.3,0.6,0.8,0.7,1.3c0.1,0.6-0.1,1.2-0.3,1.8
	c-0.3,1-1.2,1.9-1.9,1.3c-0.5,0.8,0,2,0.1,2.9c0,0.7,0,2-0.6,2.5c-0.6,0.4-1.5,0.1-1.5,1.2c0,1,0.9,1.7,1.9,1.8s1.9-0.2,2.8-0.5
	c0.9-0.3,1.9-0.5,2.8-0.1c0.5,0.2,1,0.6,1.6,0.7c0.5,0.1,1.1-0.1,1.6-0.4c0.2-0.1,0.3-0.2,0.5-0.3c0.8-0.5,1.6-1,1.9-1.9
	C305.7,104,305.9,101.9,305.2,100.6z"/>
<path class="st32" d="M293.1,103.3c0.2-0.7,0.3-1.9,0-3.9C293.3,101.5,293.2,102.7,293.1,103.3z M293.1,103.3
	c-0.1,0.4-0.2,0.6-0.2,0.6S293,103.7,293.1,103.3z"/>
<path class="st33" d="M248.4,109.4c0,0,2.6,4.4,0.8,7.6l-1.2-0.8c0,0-2.2-3.2-3.7-3.9l1-1.7l0.8,0.9l-0.5-1.2l1.9-1l0.3-0.2
	L248.4,109.4z"/>
<path class="st34" d="M245.4,110.9c0,0,4.3,2.7,4.3,6.3l-1.4-0.1c0,0-3.4-1.7-5.2-1.7l0.1-1.9l0.1-0.4l1.2-1.7l0.2-0.4L245.4,110.9z
	"/>
<path class="st12" d="M246.1,115.1l0.1-0.2c-0.1-0.1-0.2-0.1-0.3-0.2l0.1-0.1c0.1,0.1,0.1,0.2,0.3,0.2c0.1,0.1,0.3,0,0.4-0.1
	c0.1-0.1,0-0.2-0.1-0.4c-0.2-0.2-0.3-0.4-0.2-0.5c0.1-0.2,0.3-0.2,0.5-0.2l0.1-0.2l0.1,0.1l-0.1,0.2c0.1,0,0.2,0.1,0.2,0.2l-0.1,0.1
	c-0.1-0.1-0.1-0.2-0.2-0.2c-0.2-0.1-0.3,0-0.3,0.1c-0.1,0.1,0,0.2,0.1,0.4c0.2,0.2,0.2,0.4,0.1,0.5c-0.1,0.2-0.3,0.3-0.5,0.2
	l-0.1,0.2L246.1,115.1z"/>
<path class="st35" d="M212.8,225.8l0.4,8.4l4.4-0.7l0.8-6.7L212.8,225.8z M201.8,228.1c0,0.3-0.1,6.2-0.1,6.2s-5.2,1-5.2,0.2
	c0.1-0.8,0.1-6.1,0.1-6.1L201.8,228.1z"/>
<path class="st26" d="M226.1,177.7c-2.9-10.3-11.1-29.9-11.1-29.9s-17.2-9.1-24.3-3.5c-7.1,5.5,4.1,33.2,4.1,33.2
	s-1.8,39.9,0.6,51.2c0.7,5,7.1,1.8,7.1,1.8s4.5-44.2,5-50.8c0.4-5-0.5-12.4-0.5-12.4l6.8,18.2c0,0-2.9,30.8-2.9,40.6
	c0,3.9,7.9,1.7,7.9,1.7S229,188.1,226.1,177.7z"/>
<path class="st13" d="M215,107.9l-0.7-3.6c0,0,4.5,1.9,6,4.7c1.6,2.8,3.2,12.6,3.2,12.6l-6.2-2.4L215,107.9z"/>
<path class="st17" d="M202.2,102c0,0,0-0.8-2-0.4c-2,0.3-10.1,1.3-11.7,3.1c-4.2,4.6,0.6,23.4,0.6,23.4l1,16.8
	c0,0,16.2,8.2,23.2,5.9c8.9-2.9,6.6-33.7,5.3-38.3c-1.2-4.7-4.4-8.2-4.4-8.2L202.2,102z"/>
<path class="st35" d="M212.5,99l0.4,2l0.5,2.3c0,0-4.8,5-5.5,4.1c-0.6-0.8-4.6-5.5-5.2-6.1c0,0,0,0,0,0c0,0,0-0.1,0-0.1l-1.1-2.7
	L212.5,99z"/>
<path class="st36" d="M212.5,99l0.4,2c-3.2,2.4-7.1,1.3-10.2,0.2c0,0,0,0,0,0c0,0,0-0.1,0-0.1l-1.1-2.7L212.5,99z"/>
<path class="st26" d="M205.8,105.1l2.3,2.3l-0.5-2.8L205.8,105.1z M210.5,104.9l-1,0l-1.1,2.4l2.5-1.3L210.5,104.9z"/>
<path class="st13" d="M209.5,104.9l3.1,2.5c0,0,1.7-2.1,1.7-3.2c0-1.1-0.9-2-0.9-2S210.7,104.8,209.5,104.9z"/>
<path class="st33" d="M203.7,124.6l-2.2-2.2l21.1-3.9l17.4,5.5l-3.2,3.2l-20.4,4.7L203.7,124.6z"/>
<path class="st13" d="M219.7,148.7l20.6-3.4l-0.2-21.3l-20.1,2.4L219.7,148.7z"/>
<defs>
	
		<filter id="Adobe_OpacityMaskFilter_00000111887743969994276920000004447782416567938493_" filterUnits="userSpaceOnUse" x="210" y="118" width="25" height="30">
		<feColorMatrix  type="matrix" values="1 0 0 0 0  0 1 0 0 0  0 0 1 0 0  0 0 0 1 0"/>
	</filter>
</defs>
<mask maskUnits="userSpaceOnUse" x="210" y="118" width="25" height="30" id="mask-5_00000143588221550919941130000008864163578667975062_">
	<g class="st0">
		<g>
			<rect x="-61.2" y="-135.2" class="st37" width="734.4" height="950.4"/>
		</g>
	</g>
</mask>
<g class="st38">
	<g transform="matrix(1, 0, 0, 1, 210, 174)">
		<g>
			<defs>
				<rect id="SVGID_00000099629360106028675390000018241678753634745001_" x="210" y="118" width="25" height="30"/>
			</defs>
			<clipPath id="SVGID_00000122699043289222052250000003878297138790083987_">
				<use xlink:href="#SVGID_00000099629360106028675390000018241678753634745001_"  style="overflow:visible;"/>
			</clipPath>
			<g id="source-20" style="clip-path:url(#SVGID_00000122699043289222052250000003878297138790083987_);">
				<g>
					<defs>
						<rect id="SVGID_00000093158683441565167710000006285524588001498791_" x="211" y="119" width="23" height="28.5"/>
					</defs>
					<clipPath id="SVGID_00000050631609942686798290000007130417569178758281_">
						<use xlink:href="#SVGID_00000093158683441565167710000006285524588001498791_"  style="overflow:visible;"/>
					</clipPath>
					<g style="clip-path:url(#SVGID_00000050631609942686798290000007130417569178758281_);">
						<path class="st12" d="M211.1,120.6l5.3-1l16.8,5.2l-0.1,4.3l-2.4,0.6l-0.4-0.7l-0.3,1l-1.9,0.5l0.3-4.6L211.1,120.6z
							 M228.9,147.2l0.2-3.4l1.2-0.1l0.2,0.4l0.2-0.6l3.1-0.6l0.1,3.4L228.9,147.2z"/>
					</g>
				</g>
			</g>
		</g>
	</g>
</g>
<path class="st34" d="M201.6,122.4l-1.1,22.1l19.2,4.2l1.1-22.1L201.6,122.4z"/>
<path class="st35" d="M194,120.2l-9.1,0.4c0,0,2.3,16.9,7.3,22.4c5,5.5,30.6,6.6,33.8,5.9c1-0.2,1.9-1.8,1.6-2.7
	c-0.7-1.8-3.7-5.1-8.8-4.1c0,0,2.3-1.6,1.8-2.3c-0.5-0.7-2.6,0.1-4.3,1.2c-4.3,3-14.3-0.8-15.9-2.7
	C196.8,134.4,195.6,126.6,194,120.2z"/>
<path class="st13" d="M192.1,103.1c0,0,5.4,7.8,2.1,18.6l-9.8-0.3c0,0-3.1-11.3,1.4-15C190.4,102.6,192.1,103.1,192.1,103.1z"/>
<path class="st26" d="M202.4,234.2L202.4,234.2l-0.6-1.4l-5.5,1l-0.3,6l16.7,0L202.4,234.2z M218.9,230.7L218.9,230.7l-0.6-1.4
	l-5.6,1l-0.3,5.8l16.3,0.4L218.9,230.7z"/>
<path class="st35" d="M215.5,89.3c0-0.2-0.1-0.4-0.2-0.7c-1.6-5.3-11.8-1.6-11.8-1.6l-4,1.9l-0.2,0.1c0,0-0.1,0-0.2-0.1
	c-0.3-0.1-1-0.3-1.5-0.1c-0.3,0.1-0.6,0.5-0.7,1.2c-0.2,2.2,1.3,5.5,2.7,5c0,0,1.6,4.5,3.6,5.1c2,0.6,5.9,3,8.6,0.2
	C214.5,97.5,216.7,94.2,215.5,89.3z"/>
<path class="st26" d="M204.9,88.7c0,0-2.7,3-2.8,4c-0.1,1-0.4-2.3-1.3-3c-0.9-0.6-1.8-0.3-1.6-0.7S204.9,88.7,204.9,88.7z"/>
<path class="st13" d="M218.3,89.5c-0.6,0-1.2,0-1.7,0.1c-0.1-0.2-0.1-0.4-0.2-0.6c-1.7-5.2-12.5-1.6-12.5-1.6l-4.2,1.8l-0.4,0
	c-0.3-0.1-1-0.3-1.6-0.1c0-0.9,0.3-6.4,3.3-8c3.3-1.7,9.9-4.1,13.5,1.9c0.4,0.7,0.5,2.6,1.1,3.3C216.3,86.8,221.4,89.4,218.3,89.5z"
	/>
<path class="st33" d="M215.7,86.2c-1.2-0.1-2.3-0.1-3.5,0c-3.7-0.4-8.3,1.1-8.3,1.1l-4.2,1.8l4.2-0.1c0,0,0,0.1,0.5,0.6
	c1,1.2,6.8,1.1,7.8,0.6c0.2-0.1,0.5-0.2,0.9-0.3c0.1,0,0.3-0.1,0.4-0.1c0.3-0.1,0.5-0.1,0.8-0.1c0.2,0,0.3,0,0.5-0.1
	c0.4,0,0.8-0.1,1.1-0.1c0.2,0,0.3,0,0.5,0c0.7,0,1.3-0.1,2-0.1C221.4,89.4,216.3,86.8,215.7,86.2z"/>
<path class="st13" d="M204.4,107.9l3.1-3.3l-5.1-3.7c0,0-0.7-0.2-1.4,0.4C200.3,101.9,204.4,107.9,204.4,107.9z"/>
<path class="st27" d="M337.2,108.8c0,0-2.7,3.4-2.3,4.8c0.4,1.4-0.6,3.9,2.1,2.5C339.8,114.6,337.2,108.8,337.2,108.8z"/>
<path class="st13" d="M120.2,190.3l0.6,40.6c0,3.5,2.9,6.3,6.4,6.2l54.2-0.7c3.5-0.1,6.3-2.9,6.2-6.4l-0.5-40.6
	c-0.1-3.5-2.9-6.3-6.4-6.2l-42.6,0.6l-11.6,0.2c-0.4,0-0.8,0.1-1.2,0.1c-0.4,0.1-0.8,0.2-1.2,0.4s-0.7,0.4-1.1,0.6s-0.7,0.5-0.9,0.8
	c-0.3,0.3-0.5,0.6-0.8,1c-0.2,0.3-0.4,0.7-0.6,1.1c-0.2,0.4-0.3,0.8-0.3,1.2C120.2,189.5,120.2,189.9,120.2,190.3z"/>
<path class="st33" d="M120.6,219.4l0.2,11.4c0,3.5,2.9,6.3,6.4,6.2l54.2-0.7c3.5-0.1,6.3-2.9,6.2-6.4l-0.2-11.4L120.6,219.4z
	 M126.8,195.2l7.2-0.1c0.2,0,0.4-0.1,0.7-0.1s0.4-0.2,0.5-0.4c0.2-0.2,0.3-0.3,0.4-0.6c0.1-0.2,0.1-0.4,0.1-0.7l0-2.9
	c0-0.2-0.1-0.4-0.1-0.7s-0.2-0.4-0.4-0.5s-0.3-0.3-0.6-0.4c-0.2-0.1-0.4-0.1-0.7-0.1l-7.2,0.1c-0.2,0-0.4,0.1-0.7,0.1
	s-0.4,0.2-0.5,0.4c-0.2,0.2-0.3,0.3-0.4,0.6c-0.1,0.2-0.1,0.4-0.1,0.7l0,2.9c0,0.2,0.1,0.4,0.1,0.6s0.2,0.4,0.4,0.6
	c0.2,0.2,0.3,0.3,0.6,0.4C126.3,195.1,126.5,195.2,126.8,195.2z M138.6,195.2l7.2-0.1c0.2,0,0.4-0.1,0.6-0.1s0.4-0.2,0.5-0.4
	c0.2-0.2,0.3-0.3,0.4-0.6c0.1-0.2,0.1-0.4,0.1-0.7l0-2.9c0-0.2-0.1-0.4-0.1-0.7s-0.2-0.4-0.4-0.5c-0.2-0.2-0.3-0.3-0.6-0.4
	c-0.2-0.1-0.4-0.1-0.7-0.1l-7.2,0.1c-0.2,0-0.4,0.1-0.7,0.1c-0.2,0.1-0.4,0.2-0.5,0.4c-0.2,0.2-0.3,0.3-0.4,0.6
	c-0.1,0.2-0.1,0.4-0.1,0.7l0,2.9c0,0.2,0.1,0.4,0.1,0.6s0.2,0.4,0.4,0.6c0.2,0.2,0.4,0.3,0.6,0.4
	C138.1,195.1,138.4,195.2,138.6,195.2z"/>
<defs>
	
		<filter id="Adobe_OpacityMaskFilter_00000134945543184567210230000013890391789255201691_" filterUnits="userSpaceOnUse" x="142" y="197" width="46" height="41">
		<feColorMatrix  type="matrix" values="1 0 0 0 0  0 1 0 0 0  0 0 1 0 0  0 0 0 1 0"/>
	</filter>
</defs>
<mask maskUnits="userSpaceOnUse" x="142" y="197" width="46" height="41" id="mask-6_00000106864821141336644150000015644168611514637210_">
	<g class="st0">
		<g>
			<rect x="-61.2" y="-135.2" class="st41" width="734.4" height="950.4"/>
		</g>
	</g>
</mask>
<g class="st42">
	<g transform="matrix(1, 0, 0, 1, 142, 253)">
		<g>
			<defs>
				<rect id="SVGID_00000017497486072986319470000015197343828683830445_" x="142" y="197" width="46" height="41"/>
			</defs>
			<clipPath id="SVGID_00000157277114930259047780000014521809337536858025_">
				<use xlink:href="#SVGID_00000017497486072986319470000015197343828683830445_"  style="overflow:visible;"/>
			</clipPath>
			<g id="source-23" style="clip-path:url(#SVGID_00000157277114930259047780000014521809337536858025_);">
				<g>
					<defs>
						<rect id="SVGID_00000077288523034665219550000008799656742305100188_" x="142.1" y="197.4" width="45.6" height="39.6"/>
					</defs>
					<clipPath id="SVGID_00000171710876773723332280000000343201980637569459_">
						<use xlink:href="#SVGID_00000077288523034665219550000008799656742305100188_"  style="overflow:visible;"/>
					</clipPath>
					<g style="clip-path:url(#SVGID_00000171710876773723332280000000343201980637569459_);">
						<path class="st45" d="M187,205.4l-19.2-7.5l-24.6,8.5l-0.7,30.4h6.6l38-28.4L187,205.4z"/>
					</g>
				</g>
			</g>
		</g>
	</g>
</g>
<path class="st34" d="M168.5,245.1l-23.1-8.7v-27.2l23.1,8.7V245.1z"/>
<path class="st13" d="M191.6,236.4l-23.1,8.7v-27.2l23.1-8.7V236.4z"/>
<path class="st33" d="M168.5,200.6l-23.1,8.7l23.1,8.7l23.1-8.7L168.5,200.6z"/>
<defs>
	
		<filter id="Adobe_OpacityMaskFilter_00000033333433062936852240000012397239914575087490_" filterUnits="userSpaceOnUse" x="153" y="202" width="31" height="13">
		<feColorMatrix  type="matrix" values="1 0 0 0 0  0 1 0 0 0  0 0 1 0 0  0 0 0 1 0"/>
	</filter>
</defs>
<mask maskUnits="userSpaceOnUse" x="153" y="202" width="31" height="13" id="mask-7_00000042018042047898057060000000721881068606060454_">
	<g class="st0">
		<g>
			<rect x="-61.2" y="-135.2" class="st37" width="734.4" height="950.4"/>
		</g>
	</g>
</mask>
<g class="st46">
	<g transform="matrix(1, 0, 0, 1, 153, 258)">
		<g>
			<defs>
				<rect id="SVGID_00000024720174854754905840000004984948803344112537_" x="153" y="202" width="31" height="13"/>
			</defs>
			<clipPath id="SVGID_00000102541386612378664470000012541895465260245655_">
				<use xlink:href="#SVGID_00000024720174854754905840000004984948803344112537_"  style="overflow:visible;"/>
			</clipPath>
			<g id="source-26" style="clip-path:url(#SVGID_00000102541386612378664470000012541895465260245655_);">
				<g>
					<defs>
						<rect id="SVGID_00000143597222054894166310000015722166434136180378_" x="154" y="203" width="29.6" height="11.7"/>
					</defs>
					<clipPath id="SVGID_00000109751032448368112700000004565347291453773959_">
						<use xlink:href="#SVGID_00000143597222054894166310000015722166434136180378_"  style="overflow:visible;"/>
					</clipPath>
					<g style="clip-path:url(#SVGID_00000109751032448368112700000004565347291453773959_);">
						<path class="st12" d="M160.2,203.7l-5.8,2.1l23.1,8.7l5.8-2.1L160.2,203.7z"/>
					</g>
				</g>
			</g>
		</g>
	</g>
</g>
<defs>
	
		<filter id="Adobe_OpacityMaskFilter_00000082344248132698572490000002083504773862126475_" filterUnits="userSpaceOnUse" x="177" y="211" width="7" height="32">
		<feColorMatrix  type="matrix" values="1 0 0 0 0  0 1 0 0 0  0 0 1 0 0  0 0 0 1 0"/>
	</filter>
</defs>
<mask maskUnits="userSpaceOnUse" x="177" y="211" width="7" height="32" id="mask-8_00000068665728237867402300000002619332394934137497_">
	<g class="st0">
		<g>
			<rect x="-61.2" y="-135.2" class="st37" width="734.4" height="950.4"/>
		</g>
	</g>
</mask>
<g class="st49">
	<g transform="matrix(1, 0, 0, 1, 177, 267)">
		<g>
			<defs>
				<rect id="SVGID_00000155127349055976803590000004915417832254818467_" x="177" y="211" width="7" height="32"/>
			</defs>
			<clipPath id="SVGID_00000045600421471056308520000017768784335093152907_">
				<use xlink:href="#SVGID_00000155127349055976803590000004915417832254818467_"  style="overflow:visible;"/>
			</clipPath>
			<g id="source-29" style="clip-path:url(#SVGID_00000045600421471056308520000017768784335093152907_);">
				<g>
					<defs>
						<rect id="SVGID_00000101808279909071112100000001410221728842708403_" x="177.1" y="212" width="6.5" height="30"/>
					</defs>
					<clipPath id="SVGID_00000072247929825756683810000011537114596476670129_">
						<use xlink:href="#SVGID_00000101808279909071112100000001410221728842708403_"  style="overflow:visible;"/>
					</clipPath>
					<g style="clip-path:url(#SVGID_00000072247929825756683810000011537114596476670129_);">
						<path class="st12" d="M177.5,214.5v6.9l0.9-0.5l0.5-0.8l0.2,1.1l0.4-0.9l0.2,0.5l1.8-0.5l0.2-1.1l0.4,0.8l1.1-0.7l0-7
							L177.5,214.5z M183.3,239.5v-6.9l-0.9,0.5l-0.5,0.8l-0.2-1.1l-0.4,0.9l-0.2-0.5l-1.8,0.5l-0.2,1.1l-0.4-0.8l-1.1,0.7l0,7
							L183.3,239.5z"/>
					</g>
				</g>
			</g>
		</g>
	</g>
</g>
</svg>
