<?xml version="1.0" encoding="utf-8"?>
<!-- Generator: Adobe Illustrator 25.4.1, SVG Export Plug-In . SVG Version: 6.00 Build 0)  -->
<svg version="1.1" id="Layer_1" xmlns="http://www.w3.org/2000/svg" xmlns:xlink="http://www.w3.org/1999/xlink" x="0px" y="0px"
	 viewBox="0 0 399 419" style="enable-background:new 0 0 399 419;" xml:space="preserve">
<style type="text/css">
	.st0{clip-path:url(#SVGID_00000052067825292115149370000012513127243319600062_);}
	.st1{filter:url(#filter-remove-color);}
	.st2{opacity:0.25;}
	.st3{mask:url(#mask-0_00000131328418176027904240000016924846133421921211_);}
	.st4{clip-path:url(#SVGID_00000147195842146311511750000002406847598097811611_);}
	.st5{fill:#CCD2D6;}
	.st6{clip-path:url(#SVGID_00000031887451509503592690000005660153223642094496_);}
	.st7{clip-path:url(#SVGID_00000171681531161514677290000017895111975972051852_);}
	.st8{clip-path:url(#SVGID_00000030444627259894011500000013438421855108423342_);}
	.st9{opacity:0.75;}
	.st10{mask:url(#mask-1_00000080894823213067706450000009209521475410246024_);}
	.st11{clip-path:url(#SVGID_00000021815971244108267920000010260659238366054560_);}
	.st12{clip-path:url(#SVGID_00000176026453331552110110000015940968943853751216_);}
	.st13{opacity:0.5;}
	.st14{mask:url(#mask-2_00000152963422692979359590000013441865795719565733_);}
	.st15{clip-path:url(#SVGID_00000093870649396205834870000000471467180942114197_);}
	.st16{clip-path:url(#SVGID_00000068675650922016442200000014922848008604333462_);}
	.st17{mask:url(#mask-3_00000003803135359080082750000008106481903749676981_);}
	.st18{clip-path:url(#SVGID_00000135662176804429407700000007313961767061315516_);}
	.st19{clip-path:url(#SVGID_00000155147404197015024460000000713509712797589636_);}
	.st20{mask:url(#mask-4_00000162319203025218270610000003694980241396323758_);}
	.st21{clip-path:url(#SVGID_00000008832291537599310530000008401723469679402131_);}
	.st22{clip-path:url(#SVGID_00000096763380113915269660000003180469469759483028_);}
	.st23{mask:url(#mask-5_00000013169651804808657370000007601785597704884382_);}
	.st24{clip-path:url(#SVGID_00000087404431379663210960000000519908878710253751_);}
	.st25{clip-path:url(#SVGID_00000111174235413626629560000014756798587005011372_);}
	.st26{mask:url(#mask-6_00000183234072315463055660000002815288920206790318_);}
	.st27{clip-path:url(#SVGID_00000043448340792750892590000015810336905651755149_);}
	.st28{clip-path:url(#SVGID_00000132798491582533877550000015096548040060836528_);}
	.st29{mask:url(#mask-7_00000024713599654284386060000002796020479688352938_);}
	.st30{clip-path:url(#SVGID_00000010297255612693525140000012913648975805576345_);}
	.st31{clip-path:url(#SVGID_00000120530053912913252990000001983095400153925023_);}
	.st32{mask:url(#mask-8_00000043458907315948516690000004421448533735304364_);}
	.st33{clip-path:url(#SVGID_00000103227697681707885110000011387165091895510441_);}
	.st34{clip-path:url(#SVGID_00000075871635103010124880000006675304802977612680_);}
	.st35{mask:url(#mask-9_00000038374839447757455850000016247453545928949171_);}
	.st36{clip-path:url(#SVGID_00000021113421370614664600000002828589615952657855_);}
	.st37{clip-path:url(#SVGID_00000013888106044803952030000014209056759117371327_);}
	.st38{mask:url(#mask-10_00000003085373886953717380000006774491036923032965_);}
	.st39{clip-path:url(#SVGID_00000157309407768648560640000003662085700075897236_);}
	.st40{clip-path:url(#SVGID_00000114072615818682147180000009808066106091260292_);}
	.st41{mask:url(#mask-11_00000108280232591571996600000015262695514619748501_);}
	.st42{clip-path:url(#SVGID_00000111889259065201150910000018172586501820524223_);}
	.st43{mask:url(#mask-12_00000159469723477158145740000010442235916814112680_);}
	.st44{clip-path:url(#SVGID_00000053531809045773294940000005698586974168591766_);}
	.st45{clip-path:url(#SVGID_00000034778198478726553260000009176295207775485876_);}
	.st46{mask:url(#mask-13_00000153699859133116557820000009078906584375508920_);}
	.st47{clip-path:url(#SVGID_00000107551972632298334010000012268815833804467114_);}
</style>
<filter  height="100%" id="filter-remove-color" width="100%" x="0%" y="0%">
	<feColorMatrix  color-interpolation-filters="sRGB" values="0 0 0 0 1 0 0 0 0 1 0 0 0 0 1 0 0 0 1 0"></feColorMatrix>
</filter>
<g>
	<defs>
		<rect id="SVGID_1_" x="6" y="22" width="412.5" height="380"/>
	</defs>
	<clipPath id="SVGID_00000137824672624654513310000005108433398423581060_">
		<use xlink:href="#SVGID_1_"  style="overflow:visible;"/>
	</clipPath>
	<g style="clip-path:url(#SVGID_00000137824672624654513310000005108433398423581060_);">
		<defs>
			<filter id="Adobe_OpacityMaskFilter" filterUnits="userSpaceOnUse" x="6" y="22" width="413" height="380">
				<feColorMatrix  type="matrix" values="1 0 0 0 0  0 1 0 0 0  0 0 1 0 0  0 0 0 1 0"/>
			</filter>
		</defs>
		
			<mask maskUnits="userSpaceOnUse" x="6" y="22" width="413" height="380" id="mask-0_00000131328418176027904240000016924846133421921211_">
			<g class="st1">
				<g>
					<rect x="-61.2" y="-79.2" class="st2" width="734.4" height="950.4"/>
				</g>
			</g>
		</mask>
		<g class="st3">
			<g transform="matrix(1, 0, 0, 1, 6, 22)">
				<g>
					<defs>
						<rect id="SVGID_00000002357601506504744400000012461069803467970750_" x="6" y="22" width="413" height="380"/>
					</defs>
					<clipPath id="SVGID_00000183960777479758412550000015355587885777059715_">
						<use xlink:href="#SVGID_00000002357601506504744400000012461069803467970750_"  style="overflow:visible;"/>
					</clipPath>
					<g id="source-5" style="clip-path:url(#SVGID_00000183960777479758412550000015355587885777059715_);">
						<path class="st5" d="M106.2,310.8l5.6,32h28.4l-4.1-32H106.2z"/>
						<path class="st5" d="M179.3,342.7v-32h-31.7l4.1,32H179.3z"/>
						<path class="st5" d="M179.3,226.5h-42.5l3.5,27.7h39V226.5z"/>
						<g>
							<defs>
								<rect id="SVGID_00000029011303359435669830000001160555460075369370_" x="6" y="22.3" width="412.5" height="149.7"/>
							</defs>
							<clipPath id="SVGID_00000051345239779313440240000012612208744181230208_">
								<use xlink:href="#SVGID_00000029011303359435669830000001160555460075369370_"  style="overflow:visible;"/>
							</clipPath>
							<g style="clip-path:url(#SVGID_00000051345239779313440240000012612208744181230208_);">
								<path class="st5" d="M51.6,98.5H51c6.4,0,12.6,1.1,18.1,3.1V54.5c0-4.9,4-8.8,8.8-8.8h89.9c4.9,0,8.8,4,8.8,8.8v28.6
									c10.6-3.2,22.8-4.9,36.3-4.9c32.8,0,56.9,9.5,71.8,28.3c12.5,15.9,15.8,35.2,16,50.3c1.9,0.9,3.7,2,5.4,3.3
									c3.5,2.8,6.3,6.6,8,10.8h28.4c-16-5.9-27.1-19.2-27.1-34.7c0-10.5,5.1-20,13.4-26.8c8.3-6.9,19.7-11.1,32.3-11.1h11.8
									c12.6,0,24-4.2,32.3-11.1c8.3-6.9,13.4-16.3,13.4-26.8c0-20.9-20.4-37.9-45.6-37.9H51.6c-12.6,0-24,4.2-32.3,11.1
									C11.1,40.6,6,50.1,6,60.6C6,81.5,26.4,98.5,51.6,98.5z"/>
							</g>
						</g>
						<path class="st5" d="M98,264.4l6.3,36h30.5l-4.6-36H98z"/>
						<path class="st5" d="M91.3,226.5l4.9,27.7h32.7l-3.5-27.7H91.3z"/>
						<path class="st5" d="M213,91.8c-13.9,0-26.1,1.9-36.3,5.6v8.6c0,4.9-4,8.8-8.8,8.8h-14.3v8.3c0,3.8-4.5,5.9-7.4,3.3l-1.7-1.5
							c-5.2,10-7.2,20.9-7.9,30.2c0.1,0,0.2,0,0.3,0.1c3.8,0.9,7.4,2.6,10.3,5c3.5,2.8,6.3,6.6,8,10.8H266c1.3-3.4,3.4-6.5,5.9-9
							c0.6-0.6,1.3-1.2,2-1.8c3.7-2.9,8.2-4.9,13.1-5.5c-0.5-12.5-3.4-27.7-13-39.9C262,99.5,241.4,91.8,213,91.8L213,91.8z"/>
						<path class="st5" d="M179.3,264.4h-37.6l4.6,36h33V264.4z"/>
						<g>
							<defs>
								<rect id="SVGID_00000114047623094959245680000004428543470321656251_" x="6" y="226" width="412.5" height="176"/>
							</defs>
							<clipPath id="SVGID_00000121959534984154816130000004244012258938895242_">
								<use xlink:href="#SVGID_00000114047623094959245680000004428543470321656251_"  style="overflow:visible;"/>
							</clipPath>
							<g style="clip-path:url(#SVGID_00000121959534984154816130000004244012258938895242_);">
								<path class="st5" d="M372.9,326h-52.5l-4.8,27h1.6c4.1,0,7.4,3.3,7.4,7.4v11.7c0,4.1-3.3,7.4-7.4,7.4H103.9
									c-4.1,0-7.4-3.3-7.4-7.4v-11.7c0-4.1,3.3-7.4,7.4-7.4H102l-7.4-42.2l-0.6-3.4c-2,2.8-4.3,5.3-7,7.6
									c-8.3,6.9-19.7,11.1-32.3,11.1h-3.1c-12.6,0-24,4.2-32.3,11.1C11.1,344,6,353.4,6,363.9c0,20.9,20.4,37.9,45.6,37.9h321.3
									c12.6,0,24-4.2,32.3-11.1c8.3-6.9,13.4-16.3,13.4-26.8C418.5,343,398.1,326,372.9,326L372.9,326z M238.3,254.2h16.9
									c6.1-2.6,13-4,20.4-4h2.3l3-23.7h-42.5L238.3,254.2L238.3,254.2z"/>
							</g>
						</g>
						<path class="st5" d="M289.3,250.2h32.9l4.2-23.7h-34L289.3,250.2z"/>
						<path class="st5" d="M238.3,266.2c0.5-0.6,1-1.2,1.6-1.7h-1.6V266.2z"/>
						<path class="st5" d="M190.7,264.4h36.2v36h-36.2V264.4z"/>
						<path class="st5" d="M308.8,326h-29.2l-2.1,16.7h28.4L308.8,326z"/>
						<g>
							<defs>
								<rect id="SVGID_00000045595266424176032630000016573936503827361187_" x="6" y="114" width="412.5" height="229"/>
							</defs>
							<clipPath id="SVGID_00000137815902973350366740000010638458243913604246_">
								<use xlink:href="#SVGID_00000045595266424176032630000016573936503827361187_"  style="overflow:visible;"/>
							</clipPath>
							<g style="clip-path:url(#SVGID_00000137815902973350366740000010638458243913604246_);">
								<path class="st5" d="M372.9,174.3h-11.8c-3.6,0-7-0.3-10.3-1c1.3,1.3,2.1,3.1,2.1,5.1v30.3c0,4.1-3.3,7.4-7.4,7.4H75.8
									c-4.1,0-7.4-3.3-7.4-7.4v-30.3c0-4.1,3.3-7.4,7.4-7.4h31.3c1.3-3.4,3.4-6.5,5.9-9c0.7-0.6,1.3-1.2,2-1.8
									c2.3-1.9,5-3.3,7.9-4.3c0.6-12.1,3.4-26.8,11.1-40.2l-1-0.9H88.5c5.1,6.1,8.1,13.6,8.1,21.6c0,10.5-5.1,19.9-13.4,26.8
									c-8.3,6.9-19.7,11.1-32.3,11.1h0.6c-12.6,0-24,4.2-32.3,11.1C11.1,192.3,6,201.8,6,212.2c0,20.9,20.4,37.9,45.6,37.9h3.1
									c12,0,22.9,3.8,31,10.1l-1.1-6.1l-6.7-38h261.8l-6,34h39.1c12.6,0,24-4.2,32.3-11.1c8.3-6.9,13.4-16.3,13.4-26.8
									C418.5,191.3,398.1,174.3,372.9,174.3L372.9,174.3z M268.2,325.5c-11.9-1.6-22.3-7-29.2-14.7h-0.7v32H266L268.2,325.5z"/>
							</g>
						</g>
						<path class="st5" d="M190.7,226.5h36.2v27.7h-36.2V226.5z"/>
						<path class="st5" d="M190.7,310.8h36.2v32h-36.2V310.8z"/>
					</g>
				</g>
			</g>
		</g>
	</g>
</g>
<defs>
	
		<filter id="Adobe_OpacityMaskFilter_00000042719305287654047020000014030021895381256880_" filterUnits="userSpaceOnUse" x="77" y="215" width="264" height="139">
		<feColorMatrix  type="matrix" values="1 0 0 0 0  0 1 0 0 0  0 0 1 0 0  0 0 0 1 0"/>
	</filter>
</defs>
<mask maskUnits="userSpaceOnUse" x="77" y="215" width="264" height="139" id="mask-1_00000080894823213067706450000009209521475410246024_">
	<g class="st1">
		<g>
			<rect x="-61.2" y="-79.2" class="st9" width="734.4" height="950.4"/>
		</g>
	</g>
</mask>
<g class="st10">
	<g transform="matrix(1, 0, 0, 1, 77, 215)">
		<g>
			<defs>
				<rect id="SVGID_00000148643320880384833460000017513676973220027579_" x="77" y="215" width="264" height="139"/>
			</defs>
			<clipPath id="SVGID_00000048495076675896660900000006817009489551215744_">
				<use xlink:href="#SVGID_00000148643320880384833460000017513676973220027579_"  style="overflow:visible;"/>
			</clipPath>
			<g id="source-8" style="clip-path:url(#SVGID_00000048495076675896660900000006817009489551215744_);">
				<g>
					<defs>
						<rect id="SVGID_00000098929977195828376540000015047762389294437271_" x="77.8" y="216" width="262.2" height="137.5"/>
					</defs>
					<clipPath id="SVGID_00000163784626982112615380000000523865993141395083_">
						<use xlink:href="#SVGID_00000098929977195828376540000015047762389294437271_"  style="overflow:visible;"/>
					</clipPath>
					<g style="clip-path:url(#SVGID_00000163784626982112615380000000523865993141395083_);">
						<path class="st5" d="M293.7,216.2H78l6.7,38l1.8,10.3l6.3,36l1.8,10.3L102,353h213.6l7.4-42.3l1.8-10.3l6.3-36l1.8-10.3
							l6.7-38H293.7z M280.8,226.5l-3.5,27.7h-39v-27.7H280.8z M271.4,300.5h-33v-36H276L271.4,300.5z M141.7,264.4h37.6v36h-33
							L141.7,264.4z M190.7,264.4h36.2v36h-36.2V264.4z M226.9,226.5v27.7h-36.2v-27.7H226.9z M179.3,226.5v27.7h-39l-3.5-27.7
							H179.3z M91.3,226.5h34l3.5,27.7H96.2L91.3,226.5z M98,264.4h32.2l4.6,36h-30.5L98,264.4z M111.8,342.7l-5.6-32h30l4.1,32
							H111.8L111.8,342.7z M151.7,342.7l-4.1-32h31.7v32H151.7z M190.7,342.7v-32h36.2v32H190.7z M238.3,342.7v-32h31.7l-4.1,32
							H238.3z M305.9,342.7h-28.4l4.1-32h30L305.9,342.7L305.9,342.7z M313.3,300.5h-30.5l4.6-36h32.2L313.3,300.5z M288.8,254.2
							l3.5-27.7h34l-4.9,27.7H288.8L288.8,254.2z"/>
					</g>
				</g>
			</g>
		</g>
	</g>
</g>
<defs>
	
		<filter id="Adobe_OpacityMaskFilter_00000043422462338131741080000005592428404833896362_" filterUnits="userSpaceOnUse" x="68" y="170" width="286" height="47">
		<feColorMatrix  type="matrix" values="1 0 0 0 0  0 1 0 0 0  0 0 1 0 0  0 0 0 1 0"/>
	</filter>
</defs>
<mask maskUnits="userSpaceOnUse" x="68" y="170" width="286" height="47" id="mask-2_00000152963422692979359590000013441865795719565733_">
	<g class="st1">
		<g>
			<rect x="-61.2" y="-79.2" class="st13" width="734.4" height="950.4"/>
		</g>
	</g>
</mask>
<g class="st14">
	<g transform="matrix(1, 0, 0, 1, 68, 170)">
		<g>
			<defs>
				<rect id="SVGID_00000144296570519681105000000000551512758177620394_" x="68" y="170" width="286" height="47"/>
			</defs>
			<clipPath id="SVGID_00000101821027126386977150000004050613331658591874_">
				<use xlink:href="#SVGID_00000144296570519681105000000000551512758177620394_"  style="overflow:visible;"/>
			</clipPath>
			<g id="source-11" style="clip-path:url(#SVGID_00000101821027126386977150000004050613331658591874_);">
				<g>
					<defs>
						<rect id="SVGID_00000013153839834045027880000003990162488601565842_" x="68.2" y="171" width="284.8" height="45.5"/>
					</defs>
					<clipPath id="SVGID_00000124879444665738914910000016475597187170725300_">
						<use xlink:href="#SVGID_00000013153839834045027880000003990162488601565842_"  style="overflow:visible;"/>
					</clipPath>
					<g style="clip-path:url(#SVGID_00000124879444665738914910000016475597187170725300_);">
						<path class="st5" d="M352.8,178.5v30.3c0,4.1-3.3,7.4-7.4,7.4H75.8c-4.1,0-7.4-3.3-7.4-7.4v-30.3c0-4.1,3.3-7.4,7.4-7.4h31.3
							c-1.1,2.9-1.7,6-1.7,9.3c0,8.2,3.8,15.4,9.7,20.2c4.4,3.5,10,5.6,16.1,5.6c6.1,0,11.7-2.1,16.1-5.6c5.9-4.7,9.7-12,9.7-20.2
							c0-3.3-0.6-6.4-1.7-9.3H266c-1.1,2.9-1.7,6-1.7,9.3c0,8.2,3.8,15.4,9.7,20.2c4.4,3.5,10,5.6,16.1,5.6c6.1,0,11.7-2.1,16.1-5.6
							c5.9-4.7,9.7-12,9.7-20.2c0-3.3-0.6-6.4-1.7-9.3h31.3C349.5,171.1,352.8,174.4,352.8,178.5z"/>
					</g>
				</g>
			</g>
		</g>
	</g>
</g>
<defs>
	
		<filter id="Adobe_OpacityMaskFilter_00000169532980649207432650000002860110755855085697_" filterUnits="userSpaceOnUse" x="96" y="352" width="229" height="28">
		<feColorMatrix  type="matrix" values="1 0 0 0 0  0 1 0 0 0  0 0 1 0 0  0 0 0 1 0"/>
	</filter>
</defs>
<mask maskUnits="userSpaceOnUse" x="96" y="352" width="229" height="28" id="mask-3_00000003803135359080082750000008106481903749676981_">
	<g class="st1">
		<g>
			<rect x="-61.2" y="-79.2" class="st13" width="734.4" height="950.4"/>
		</g>
	</g>
</mask>
<g class="st17">
	<g transform="matrix(1, 0, 0, 1, 96, 352)">
		<g>
			<defs>
				<rect id="SVGID_00000000941051760243377530000006703269897756394664_" x="96" y="352" width="229" height="28"/>
			</defs>
			<clipPath id="SVGID_00000063631351527976643540000016958831276944207761_">
				<use xlink:href="#SVGID_00000000941051760243377530000006703269897756394664_"  style="overflow:visible;"/>
			</clipPath>
			<g id="source-14" style="clip-path:url(#SVGID_00000063631351527976643540000016958831276944207761_);">
				<g>
					<defs>
						<rect id="SVGID_00000093143466140128917460000006616397664428762496_" x="96.2" y="353" width="228.7" height="26.9"/>
					</defs>
					<clipPath id="SVGID_00000118399050752314863240000011911038660482611597_">
						<use xlink:href="#SVGID_00000093143466140128917460000006616397664428762496_"  style="overflow:visible;"/>
					</clipPath>
					<g style="clip-path:url(#SVGID_00000118399050752314863240000011911038660482611597_);">
						<path class="st5" d="M102.8,353h215.6c0.4,0,0.8,0,1.2,0.1s0.8,0.2,1.2,0.4c0.4,0.2,0.7,0.4,1.1,0.6c0.3,0.2,0.7,0.5,1,0.8
							c0.3,0.3,0.6,0.6,0.8,1s0.4,0.7,0.6,1.1c0.2,0.4,0.3,0.8,0.4,1.2c0.1,0.4,0.1,0.8,0.1,1.2v13.9c0,0.4,0,0.8-0.1,1.2
							c-0.1,0.4-0.2,0.8-0.4,1.2c-0.2,0.4-0.4,0.8-0.6,1.1s-0.5,0.7-0.8,1c-0.3,0.3-0.6,0.6-1,0.8c-0.3,0.2-0.7,0.4-1.1,0.6
							c-0.4,0.2-0.8,0.3-1.2,0.4s-0.8,0.1-1.2,0.1H102.8c-0.4,0-0.8,0-1.2-0.1c-0.4-0.1-0.8-0.2-1.2-0.4s-0.7-0.4-1.1-0.6
							c-0.3-0.2-0.7-0.5-1-0.8s-0.6-0.6-0.8-1s-0.4-0.7-0.6-1.1c-0.2-0.4-0.3-0.8-0.4-1.2c-0.1-0.4-0.1-0.8-0.1-1.2v-13.9
							c0-0.4,0-0.8,0.1-1.2c0.1-0.4,0.2-0.8,0.4-1.2c0.2-0.4,0.4-0.8,0.6-1.1s0.5-0.7,0.8-1s0.6-0.6,1-0.8c0.3-0.2,0.7-0.4,1.1-0.6
							c0.4-0.2,0.8-0.3,1.2-0.4C102,353.1,102.4,353,102.8,353z"/>
					</g>
				</g>
			</g>
		</g>
	</g>
</g>
<path class="st5" d="M316.7,354.3H101L76.5,215h264.7L316.7,354.3L316.7,354.3z M103.1,351.8h211.6l23.6-134.4H79.4L103.1,351.8z
	 M306.9,344h-30.9l4.4-34.4H313L306.9,344z M278.9,341.5h26l5.2-29.5h-27.4L278.9,341.5L278.9,341.5z M267.1,344h-30v-34.4h34.4
	L267.1,344L267.1,344z M239.6,341.5h25.3l3.8-29.5h-29.1V341.5z M228.2,344h-38.7v-34.4h38.7V344z M192,341.5h33.7V312H192V341.5z
	 M180.6,344h-30l-4.4-34.4h34.4L180.6,344L180.6,344z M152.8,341.5h25.3V312H149L152.8,341.5z M141.6,344h-30.9l-6.1-34.4h32.5
	L141.6,344z M112.8,341.5h26L135,312h-27.4L112.8,341.5L112.8,341.5z M314.4,301.7h-32.9l4.9-38.5h34.8L314.4,301.7z M284.3,299.2
	h28l5.9-33.6h-29.6L284.3,299.2L284.3,299.2z M272.5,301.7h-35.4v-38.5h40.3L272.5,301.7z M239.6,299.2h30.7l4.3-33.6h-35V299.2z
	 M228.2,301.7h-38.7v-38.5h38.7V301.7z M192,299.2h33.7v-33.6H192V299.2z M180.6,301.7h-35.4l-4.9-38.5h40.3V301.7z M147.4,299.2
	h30.7v-33.6h-35L147.4,299.2z M136.2,301.7h-32.9l-6.8-38.5h34.8L136.2,301.7z M105.4,299.2h28l-4.3-33.6H99.5L105.4,299.2
	L105.4,299.2z M322.5,255.4h-35.1l3.9-30.2h36.6L322.5,255.4z M290.2,252.9h30.2l4.4-25.2h-31.4L290.2,252.9z M278.4,255.4h-41.3
	v-30.2h45.1L278.4,255.4L278.4,255.4z M239.6,252.9h36.6l3.2-25.2h-39.9L239.6,252.9L239.6,252.9z M228.2,255.4h-38.7v-30.2h38.7
	V255.4z M192,252.9h33.7v-25.2H192V252.9z M180.6,255.4h-41.3l-3.9-30.2h45.1L180.6,255.4L180.6,255.4z M141.5,252.9h36.6v-25.2
	h-39.9L141.5,252.9L141.5,252.9z M130.3,255.4H95.2l-5.3-30.2h36.6L130.3,255.4z M97.2,252.9h30.2l-3.2-25.2H92.8L97.2,252.9z"/>
<path class="st5" d="M345.4,217.4H75.8c-4.8,0-8.6-3.9-8.6-8.6v-30.3c0-4.8,3.9-8.6,8.6-8.6h33.1l-0.7,1.7c-1.1,2.8-1.7,5.8-1.7,8.9
	c0,7.5,3.4,14.5,9.2,19.2c4.4,3.5,9.7,5.4,15.3,5.4c5.6,0,10.9-1.9,15.3-5.4c5.9-4.7,9.2-11.7,9.2-19.2c0-3.1-0.6-6-1.6-8.9
	l-0.7-1.7h114.5l-0.6,1.7c-1.1,2.8-1.6,5.8-1.6,8.9c0,7.5,3.4,14.5,9.2,19.2c4.4,3.5,9.7,5.4,15.3,5.4c5.6,0,10.9-1.9,15.3-5.4
	c5.9-4.7,9.2-11.7,9.2-19.2c0-3.1-0.6-6-1.6-8.9l-0.7-1.7h33.1c4.8,0,8.6,3.9,8.6,8.6v30.3C354,213.6,350.1,217.4,345.4,217.4
	L345.4,217.4z M75.8,172.3c-3.4,0-6.2,2.8-6.2,6.2v30.3c0,3.4,2.8,6.2,6.2,6.2h269.6c3.4,0,6.2-2.8,6.2-6.2v-30.3
	c0-3.4-2.8-6.2-6.2-6.2h-29.5c0.8,2.6,1.2,5.3,1.2,8.1c0,8.3-3.7,16-10.2,21.1c-4.8,3.9-10.6,5.9-16.8,5.9s-12-2-16.8-5.9
	c-6.5-5.2-10.2-12.8-10.2-21.1c0-2.8,0.4-5.5,1.2-8.1H156.9c0.8,2.6,1.2,5.3,1.2,8.1c0,8.3-3.7,16-10.2,21.1
	c-4.8,3.9-10.6,5.9-16.8,5.9s-12.1-2.1-16.8-5.9c-6.5-5.2-10.2-12.8-10.2-21.1c0-2.8,0.4-5.5,1.2-8.1H75.8L75.8,172.3z M318.4,380.8
	H102.8c-4.2,0-7.6-3.4-7.6-7.6v-13.9c0-4.2,3.4-7.6,7.6-7.6h215.6c4.2,0,7.6,3.4,7.6,7.6v13.9C325.9,377.4,322.5,380.8,318.4,380.8z
	 M102.8,354.3c-2.8,0-5.1,2.3-5.1,5.1v13.9c0,2.8,2.3,5.1,5.1,5.1h215.6c2.8,0,5.1-2.3,5.1-5.1v-13.9c0-2.8-2.3-5.1-5.1-5.1H102.8z"
	/>
<defs>
	
		<filter id="Adobe_OpacityMaskFilter_00000043425285241458472270000006217829404503532194_" filterUnits="userSpaceOnUse" x="104" y="154" width="54" height="53">
		<feColorMatrix  type="matrix" values="1 0 0 0 0  0 1 0 0 0  0 0 1 0 0  0 0 0 1 0"/>
	</filter>
</defs>
<mask maskUnits="userSpaceOnUse" x="104" y="154" width="54" height="53" id="mask-4_00000162319203025218270610000003694980241396323758_">
	<g class="st1">
		<g>
			<rect x="-61.2" y="-79.2" class="st2" width="734.4" height="950.4"/>
		</g>
	</g>
</mask>
<g class="st20">
	<g transform="matrix(1, 0, 0, 1, 104, 154)">
		<g>
			<defs>
				<rect id="SVGID_00000046336904570427560240000012608075207112424093_" x="104" y="154" width="54" height="53"/>
			</defs>
			<clipPath id="SVGID_00000029045351359737363050000014885692827141810588_">
				<use xlink:href="#SVGID_00000046336904570427560240000012608075207112424093_"  style="overflow:visible;"/>
			</clipPath>
			<g id="source-17" style="clip-path:url(#SVGID_00000029045351359737363050000014885692827141810588_);">
				<g>
					<defs>
						<rect id="SVGID_00000124153220639381116600000016809703304583856823_" x="105" y="154.3" width="52" height="52.3"/>
					</defs>
					<clipPath id="SVGID_00000127762095946383093380000001519186761461098170_">
						<use xlink:href="#SVGID_00000124153220639381116600000016809703304583856823_"  style="overflow:visible;"/>
					</clipPath>
					<g style="clip-path:url(#SVGID_00000127762095946383093380000001519186761461098170_);">
						<path class="st5" d="M156.9,180.4c0,8.2-3.8,15.4-9.7,20.2c-4.4,3.5-10,5.6-16.1,5.6c-6.1,0-11.7-2.1-16.1-5.6
							c-5.9-4.7-9.7-12-9.7-20.2c0-3.3,0.6-6.4,1.7-9.3c1.3-3.4,3.4-6.5,5.9-9c0.7-0.6,1.3-1.2,2-1.8c2.3-1.9,5-3.3,7.9-4.3
							c2.6-0.9,5.3-1.3,8.2-1.3c1.9,0,3.7,0.2,5.5,0.6c0.1,0,0.2,0,0.3,0.1c3.8,0.9,7.4,2.6,10.3,5c3.5,2.8,6.3,6.6,8,10.8
							C156.3,174,156.9,177.1,156.9,180.4L156.9,180.4z"/>
					</g>
				</g>
			</g>
		</g>
	</g>
</g>
<defs>
	
		<filter id="Adobe_OpacityMaskFilter_00000178199863393108197980000011006037082296520374_" filterUnits="userSpaceOnUse" x="118" y="167" width="26" height="26">
		<feColorMatrix  type="matrix" values="1 0 0 0 0  0 1 0 0 0  0 0 1 0 0  0 0 0 1 0"/>
	</filter>
</defs>
<mask maskUnits="userSpaceOnUse" x="118" y="167" width="26" height="26" id="mask-5_00000013169651804808657370000007601785597704884382_">
	<g class="st1">
		<g>
			<rect x="-61.2" y="-79.2" class="st13" width="734.4" height="950.4"/>
		</g>
	</g>
</mask>
<g class="st23">
	<g transform="matrix(1, 0, 0, 1, 118, 167)">
		<g>
			<defs>
				<rect id="SVGID_00000129910780804583528990000010730521576948990646_" x="118" y="167" width="26" height="26"/>
			</defs>
			<clipPath id="SVGID_00000052063502292901761010000011237550724172855464_">
				<use xlink:href="#SVGID_00000129910780804583528990000010730521576948990646_"  style="overflow:visible;"/>
			</clipPath>
			<g id="source-20" style="clip-path:url(#SVGID_00000052063502292901761010000011237550724172855464_);">
				<g>
					<defs>
						<rect id="SVGID_00000078013646153730958940000001891593273838030005_" x="118.6" y="167.5" width="25.4" height="25.4"/>
					</defs>
					<clipPath id="SVGID_00000178895311742577877910000015368099595799974546_">
						<use xlink:href="#SVGID_00000078013646153730958940000001891593273838030005_"  style="overflow:visible;"/>
					</clipPath>
					<g style="clip-path:url(#SVGID_00000178895311742577877910000015368099595799974546_);">
						<path class="st5" d="M143.5,180.4c0,0.8-0.1,1.6-0.2,2.4s-0.4,1.6-0.7,2.3s-0.7,1.5-1.1,2.1c-0.5,0.7-1,1.3-1.5,1.9
							c-0.6,0.6-1.2,1.1-1.9,1.5c-0.7,0.5-1.4,0.8-2.1,1.1s-1.5,0.5-2.3,0.7c-0.8,0.2-1.6,0.2-2.4,0.2s-1.6-0.1-2.4-0.2
							s-1.6-0.4-2.3-0.7s-1.5-0.7-2.1-1.1c-0.7-0.5-1.3-1-1.9-1.5c-0.6-0.6-1.1-1.2-1.5-1.9s-0.8-1.4-1.1-2.1s-0.6-1.5-0.7-2.3
							c-0.2-0.8-0.2-1.6-0.2-2.4s0.1-1.6,0.2-2.4c0.2-0.8,0.4-1.6,0.7-2.3s0.7-1.5,1.1-2.2c0.5-0.7,1-1.3,1.5-1.9s1.2-1.1,1.9-1.5
							c0.7-0.5,1.4-0.8,2.1-1.1s1.5-0.6,2.3-0.7c0.8-0.2,1.6-0.2,2.4-0.2s1.6,0.1,2.4,0.2c0.8,0.2,1.6,0.4,2.3,0.7s1.5,0.7,2.1,1.1
							s1.3,1,1.9,1.5s1.1,1.2,1.5,1.9c0.5,0.7,0.8,1.4,1.1,2.2s0.5,1.5,0.7,2.3S143.5,179.6,143.5,180.4z"/>
					</g>
				</g>
			</g>
		</g>
	</g>
</g>
<defs>
	
		<filter id="Adobe_OpacityMaskFilter_00000120559090641115447690000006866647245358246061_" filterUnits="userSpaceOnUse" x="122" y="115" width="23" height="42">
		<feColorMatrix  type="matrix" values="1 0 0 0 0  0 1 0 0 0  0 0 1 0 0  0 0 0 1 0"/>
	</filter>
</defs>
<mask maskUnits="userSpaceOnUse" x="122" y="115" width="23" height="42" id="mask-6_00000183234072315463055660000002815288920206790318_">
	<g class="st1">
		<g>
			<rect x="-61.2" y="-79.2" class="st9" width="734.4" height="950.4"/>
		</g>
	</g>
</mask>
<g class="st26">
	<g transform="matrix(1, 0, 0, 1, 122, 115)">
		<g>
			<defs>
				<rect id="SVGID_00000142144683032803682810000013893964087349149868_" x="122" y="115" width="23" height="42"/>
			</defs>
			<clipPath id="SVGID_00000016757622111934677800000017499843390278274983_">
				<use xlink:href="#SVGID_00000142144683032803682810000013893964087349149868_"  style="overflow:visible;"/>
			</clipPath>
			<g id="source-23" style="clip-path:url(#SVGID_00000016757622111934677800000017499843390278274983_);">
				<g>
					<defs>
						<rect id="SVGID_00000000930662497120010300000016019175745325781897_" x="122.6" y="115.7" width="22.1" height="40.3"/>
					</defs>
					<clipPath id="SVGID_00000042718539647049820830000015751407911062254982_">
						<use xlink:href="#SVGID_00000000930662497120010300000016019175745325781897_"  style="overflow:visible;"/>
					</clipPath>
					<g style="clip-path:url(#SVGID_00000042718539647049820830000015751407911062254982_);">
						<path class="st5" d="M144.4,125c-5.2,10-7.2,20.9-7.9,30.2c-1.8-0.4-3.6-0.6-5.5-0.6c-2.9,0-5.6,0.5-8.2,1.3
							c0.6-12.1,3.4-26.8,11.1-40.2L144.4,125L144.4,125z"/>
					</g>
				</g>
			</g>
		</g>
	</g>
</g>
<path class="st5" d="M121.6,157.7l0.1-1.8c0.8-15.5,4.6-29.2,11.3-40.7l0.8-1.3l12.2,10.9l-0.4,0.9c-4.4,8.5-7,18.4-7.7,29.7
	l-0.1,1.4l-1.4-0.3c-1.7-0.4-3.4-0.6-5.2-0.6c-2.7,0-5.3,0.4-7.8,1.3L121.6,157.7L121.6,157.7z M134.4,117.7
	c-5.8,10.5-9.2,22.7-10.1,36.5c3.6-0.9,7.5-1.1,11.2-0.5c0.9-10.7,3.4-20.2,7.5-28.4L134.4,117.7L134.4,117.7z"/>
<defs>
	
		<filter id="Adobe_OpacityMaskFilter_00000083793141943013860710000009898504711661208219_" filterUnits="userSpaceOnUse" x="264" y="154" width="53" height="53">
		<feColorMatrix  type="matrix" values="1 0 0 0 0  0 1 0 0 0  0 0 1 0 0  0 0 0 1 0"/>
	</filter>
</defs>
<mask maskUnits="userSpaceOnUse" x="264" y="154" width="53" height="53" id="mask-7_00000024713599654284386060000002796020479688352938_">
	<g class="st1">
		<g>
			<rect x="-61.2" y="-79.2" class="st2" width="734.4" height="950.4"/>
		</g>
	</g>
</mask>
<g class="st29">
	<g transform="matrix(1, 0, 0, 1, 264, 154)">
		<g>
			<defs>
				<rect id="SVGID_00000177451378234864120570000005528354956065954453_" x="264" y="154" width="53" height="53"/>
			</defs>
			<clipPath id="SVGID_00000057832575116552776140000008752889748382858121_">
				<use xlink:href="#SVGID_00000177451378234864120570000005528354956065954453_"  style="overflow:visible;"/>
			</clipPath>
			<g id="source-26" style="clip-path:url(#SVGID_00000057832575116552776140000008752889748382858121_);">
				<g>
					<defs>
						<rect id="SVGID_00000021087702241491198050000014348953418207180215_" x="264" y="154.3" width="52" height="52.3"/>
					</defs>
					<clipPath id="SVGID_00000016757054470016700230000005359414581431111298_">
						<use xlink:href="#SVGID_00000021087702241491198050000014348953418207180215_"  style="overflow:visible;"/>
					</clipPath>
					<g style="clip-path:url(#SVGID_00000016757054470016700230000005359414581431111298_);">
						<path class="st5" d="M315.8,180.4c0,8.2-3.8,15.4-9.7,20.2c-4.4,3.5-10,5.6-16.1,5.6c-6.1,0-11.7-2.1-16.1-5.6
							c-5.9-4.7-9.7-12-9.7-20.2c0-3.3,0.6-6.4,1.7-9.3c1.3-3.4,3.4-6.5,5.9-9c0.7-0.6,1.3-1.2,2.1-1.8c3.7-2.9,8.2-4.9,13.1-5.5
							c1-0.1,1.9-0.2,2.9-0.2c2,0,3.9,0.2,5.7,0.6c1.7,0.4,3.4,1,5,1.7c1.9,0.9,3.7,2,5.4,3.3c3.5,2.8,6.3,6.6,8,10.8
							C315.2,174,315.8,177.1,315.8,180.4L315.8,180.4z"/>
					</g>
				</g>
			</g>
		</g>
	</g>
</g>
<path class="st5" d="M131.1,207.4c-6.1,0-12.1-2.1-16.8-5.9c-6.5-5.2-10.2-12.8-10.2-21.1c0-3.4,0.6-6.6,1.8-9.8
	c1.4-3.6,3.5-6.8,6.2-9.4c0.7-0.7,1.4-1.3,2.1-1.9c2.5-2,5.3-3.5,8.3-4.5c2.8-0.9,5.6-1.4,8.6-1.4c1.9,0,3.8,0.2,5.7,0.6
	c0.1,0,0.2,0,0.2,0l0.1,0c3.9,0.9,7.7,2.7,10.8,5.2c3.7,3,6.6,6.9,8.4,11.4c1.2,3.1,1.8,6.4,1.8,9.8c0,8.3-3.7,16-10.2,21.1
	C143.1,205.4,137.3,207.4,131.1,207.4L131.1,207.4z M131.1,155.8c-2.7,0-5.3,0.4-7.8,1.3c-2.7,0.9-5.3,2.3-7.5,4.1
	c-0.7,0.6-1.3,1.1-1.9,1.7c-2.5,2.5-4.4,5.4-5.6,8.6c-1.1,2.8-1.7,5.8-1.7,8.9c0,7.5,3.4,14.5,9.2,19.2c4.4,3.5,9.7,5.4,15.3,5.4
	c5.6,0,10.9-1.9,15.3-5.4c5.9-4.7,9.2-11.7,9.2-19.2c0-3.1-0.6-6-1.6-8.9c-1.6-4-4.2-7.6-7.6-10.3c-2.9-2.3-6.3-3.9-9.8-4.7l-0.1,0
	c0,0-0.1,0-0.1,0l-0.1,0C134.6,156,132.9,155.8,131.1,155.8L131.1,155.8z M290.1,207.4c-6.2,0-12-2-16.8-5.9
	c-6.5-5.2-10.2-12.8-10.2-21.1c0-3.4,0.6-6.6,1.8-9.8c1.4-3.6,3.5-6.8,6.2-9.5c0.7-0.7,1.4-1.3,2.1-1.9c4-3.2,8.7-5.1,13.8-5.7
	c1-0.1,2.1-0.2,3.1-0.2c2,0,4.1,0.2,6,0.7c1.8,0.4,3.5,1,5.2,1.8c2,0.9,3.9,2.1,5.6,3.5c3.7,3,6.6,6.9,8.4,11.4
	c1.2,3.1,1.8,6.4,1.8,9.8c0,8.3-3.7,16-10.2,21.1C302.1,205.3,296.2,207.4,290.1,207.4L290.1,207.4z M290.1,155.8
	c-0.9,0-1.9,0.1-2.8,0.2c-4.6,0.5-8.9,2.3-12.5,5.2c-0.7,0.6-1.3,1.1-2,1.7c-2.5,2.5-4.4,5.3-5.6,8.6c-1.1,2.8-1.6,5.8-1.6,8.9
	c0,7.5,3.4,14.5,9.2,19.2c4.4,3.5,9.7,5.4,15.3,5.4c5.6,0,10.9-1.9,15.3-5.4c5.9-4.7,9.2-11.7,9.2-19.2c0-3.1-0.6-6-1.6-8.9
	c-1.6-4-4.2-7.6-7.6-10.3c-1.6-1.3-3.3-2.3-5.1-3.1c-1.5-0.7-3.1-1.2-4.7-1.6C293.7,156,291.9,155.8,290.1,155.8L290.1,155.8z"/>
<defs>
	
		<filter id="Adobe_OpacityMaskFilter_00000137846655406258769860000008592862893400162220_" filterUnits="userSpaceOnUse" x="277" y="167" width="26" height="26">
		<feColorMatrix  type="matrix" values="1 0 0 0 0  0 1 0 0 0  0 0 1 0 0  0 0 0 1 0"/>
	</filter>
</defs>
<mask maskUnits="userSpaceOnUse" x="277" y="167" width="26" height="26" id="mask-8_00000043458907315948516690000004421448533735304364_">
	<g class="st1">
		<g>
			<rect x="-61.2" y="-79.2" class="st13" width="734.4" height="950.4"/>
		</g>
	</g>
</mask>
<g class="st32">
	<g transform="matrix(1, 0, 0, 1, 277, 167)">
		<g>
			<defs>
				<rect id="SVGID_00000010283336501854085650000000090768752499113114_" x="277" y="167" width="26" height="26"/>
			</defs>
			<clipPath id="SVGID_00000021802797347499123200000013110815350047958941_">
				<use xlink:href="#SVGID_00000010283336501854085650000000090768752499113114_"  style="overflow:visible;"/>
			</clipPath>
			<g id="source-29" style="clip-path:url(#SVGID_00000021802797347499123200000013110815350047958941_);">
				<g>
					<defs>
						<rect id="SVGID_00000052785778820832744670000014003623722273403049_" x="277.2" y="167.5" width="25.4" height="25.4"/>
					</defs>
					<clipPath id="SVGID_00000108305249213748253930000017911964402580161686_">
						<use xlink:href="#SVGID_00000052785778820832744670000014003623722273403049_"  style="overflow:visible;"/>
					</clipPath>
					<g style="clip-path:url(#SVGID_00000108305249213748253930000017911964402580161686_);">
						<path class="st5" d="M302.5,180.4c0,0.8-0.1,1.6-0.2,2.4s-0.4,1.6-0.7,2.3s-0.7,1.5-1.1,2.1s-1,1.3-1.5,1.9
							c-0.6,0.6-1.2,1.1-1.9,1.5c-0.7,0.5-1.4,0.8-2.1,1.1s-1.5,0.5-2.3,0.7s-1.6,0.2-2.4,0.2s-1.6-0.1-2.4-0.2s-1.6-0.4-2.3-0.7
							s-1.5-0.7-2.1-1.1c-0.7-0.5-1.3-1-1.9-1.5c-0.6-0.6-1.1-1.2-1.5-1.9s-0.8-1.4-1.1-2.1s-0.5-1.5-0.7-2.3s-0.2-1.6-0.2-2.4
							s0.1-1.6,0.2-2.4s0.4-1.6,0.7-2.3s0.7-1.5,1.1-2.2c0.5-0.7,1-1.3,1.5-1.9s1.2-1.1,1.9-1.5c0.7-0.5,1.4-0.8,2.1-1.1
							s1.5-0.6,2.3-0.7c0.8-0.2,1.6-0.2,2.4-0.2s1.6,0.1,2.4,0.2c0.8,0.2,1.6,0.4,2.3,0.7s1.5,0.7,2.1,1.1s1.3,1,1.9,1.5
							s1.1,1.2,1.5,1.9c0.5,0.7,0.8,1.4,1.1,2.2s0.5,1.5,0.7,2.3S302.5,179.6,302.5,180.4z"/>
					</g>
				</g>
			</g>
		</g>
	</g>
</g>
<defs>
	
		<filter id="Adobe_OpacityMaskFilter_00000043446046048928900110000009168277543713897141_" filterUnits="userSpaceOnUse" x="176" y="78" width="125" height="80">
		<feColorMatrix  type="matrix" values="1 0 0 0 0  0 1 0 0 0  0 0 1 0 0  0 0 0 1 0"/>
	</filter>
</defs>
<mask maskUnits="userSpaceOnUse" x="176" y="78" width="125" height="80" id="mask-9_00000038374839447757455850000016247453545928949171_">
	<g class="st1">
		<g>
			<rect x="-61.2" y="-79.2" class="st9" width="734.4" height="950.4"/>
		</g>
	</g>
</mask>
<g class="st35">
	<g transform="matrix(1, 0, 0, 1, 176, 78)">
		<g>
			<defs>
				<rect id="SVGID_00000017517235996803800970000007369939883940488851_" x="176" y="78" width="125" height="80"/>
			</defs>
			<clipPath id="SVGID_00000101784735405647046310000012185761844446953657_">
				<use xlink:href="#SVGID_00000017517235996803800970000007369939883940488851_"  style="overflow:visible;"/>
			</clipPath>
			<g id="source-32" style="clip-path:url(#SVGID_00000101784735405647046310000012185761844446953657_);">
				<g>
					<defs>
						<rect id="SVGID_00000070831604486713328520000007407813970397444001_" x="176.2" y="78" width="124.8" height="79"/>
					</defs>
					<clipPath id="SVGID_00000142155198038017987450000009575466788234089891_">
						<use xlink:href="#SVGID_00000070831604486713328520000007407813970397444001_"  style="overflow:visible;"/>
					</clipPath>
					<g style="clip-path:url(#SVGID_00000142155198038017987450000009575466788234089891_);">
						<path class="st5" d="M300.8,156.9c-1.6-0.7-3.2-1.3-5-1.7c-1.8-0.4-3.8-0.6-5.7-0.6c-1,0-2,0.1-2.9,0.2
							c-0.5-12.5-3.4-27.7-13-39.9C262,99.6,241.4,91.8,213,91.8c-13.9,0-26.1,1.9-36.3,5.6V83.1c10.6-3.2,22.8-4.9,36.3-4.9
							c32.8,0,56.9,9.5,71.8,28.3C297.3,122.5,300.6,141.8,300.8,156.9L300.8,156.9z"/>
					</g>
				</g>
			</g>
		</g>
	</g>
</g>
<path class="st5" d="M302,158.9l-1.8-0.8c-1.5-0.7-3.1-1.2-4.7-1.6c-2.7-0.6-5.4-0.8-8.3-0.5l-1.3,0.1l0-1.3
	c-0.6-16-4.9-29.2-12.8-39.2C261.3,100.6,241,93,213,93c-13.7,0-25.8,1.9-35.9,5.5l-1.7,0.6V82.2l0.9-0.3
	c10.7-3.3,23.1-4.9,36.6-4.9c33.2,0,57.7,9.7,72.7,28.8c13.1,16.6,16.1,37,16.3,51.1L302,158.9L302,158.9z M290.1,153.4
	c2,0,4.1,0.2,6,0.7c1.2,0.3,2.3,0.6,3.4,1c-0.4-13.6-3.6-32.3-15.7-47.7c-14.6-18.5-38.4-27.9-70.8-27.9c-13,0-24.8,1.5-35.1,4.5
	v11.6c10-3.4,21.8-5.1,35.1-5.1c28.8,0,49.7,7.9,62.1,23.6c8,10.1,12.4,23.3,13.2,39.3C288.9,153.4,289.5,153.4,290.1,153.4
	L290.1,153.4z"/>
<defs>
	
		<filter id="Adobe_OpacityMaskFilter_00000094592970106619367240000014283165740123213225_" filterUnits="userSpaceOnUse" x="68" y="45" width="109" height="83">
		<feColorMatrix  type="matrix" values="1 0 0 0 0  0 1 0 0 0  0 0 1 0 0  0 0 0 1 0"/>
	</filter>
</defs>
<mask maskUnits="userSpaceOnUse" x="68" y="45" width="109" height="83" id="mask-10_00000003085373886953717380000006774491036923032965_">
	<g class="st1">
		<g>
			<rect x="-61.2" y="-79.2" class="st13" width="734.4" height="950.4"/>
		</g>
	</g>
</mask>
<g class="st38">
	<g transform="matrix(1, 0, 0, 1, 68, 45)">
		<g>
			<defs>
				<rect id="SVGID_00000080889598736618502910000018262619687380588941_" x="68" y="45" width="109" height="83"/>
			</defs>
			<clipPath id="SVGID_00000155832104445508140080000014416970357227435707_">
				<use xlink:href="#SVGID_00000080889598736618502910000018262619687380588941_"  style="overflow:visible;"/>
			</clipPath>
			<g id="source-35" style="clip-path:url(#SVGID_00000155832104445508140080000014416970357227435707_);">
				<g>
					<defs>
						<rect id="SVGID_00000039106917112452221010000002878602644734611616_" x="69" y="45.6" width="107.9" height="82.3"/>
					</defs>
					<clipPath id="SVGID_00000025416716252688798880000007874462882148187576_">
						<use xlink:href="#SVGID_00000039106917112452221010000002878602644734611616_"  style="overflow:visible;"/>
					</clipPath>
					<g style="clip-path:url(#SVGID_00000025416716252688798880000007874462882148187576_);">
						<path class="st5" d="M176.7,54.5V106c0,4.9-4,8.8-8.8,8.8h-14.3v8.3c0,3.8-4.5,5.9-7.4,3.3l-1.7-1.5l-10.4-9.2l-1-0.9H78
							c-4.9,0-8.8-4-8.8-8.8V54.5c0-4.9,4-8.8,8.8-8.8h89.9C172.8,45.7,176.7,49.7,176.7,54.5L176.7,54.5z"/>
					</g>
				</g>
			</g>
		</g>
	</g>
</g>
<path class="st5" d="M149.1,128.9c-1.4,0-2.7-0.5-3.8-1.4l-1.7-1.5l-11.1-9.8H78c-5.6,0-10.1-4.5-10.1-10.1V54.5
	c0-5.6,4.5-10.1,10.1-10.1h89.9c5.6,0,10.1,4.5,10.1,10.1V106c0,5.6-4.5,10.1-10.1,10.1h-13.1v7.1c0,2.3-1.3,4.3-3.4,5.2
	C150.7,128.7,149.9,128.9,149.1,128.9L149.1,128.9z M78,46.9c-4.2,0-7.6,3.4-7.6,7.6V106c0,4.2,3.4,7.6,7.6,7.6h55.5l13.5,12
	c1,0.9,2.3,1.1,3.4,0.5c1.2-0.5,1.9-1.6,1.9-2.9v-9.6h15.6c4.2,0,7.6-3.4,7.6-7.6V54.5c0-4.2-3.4-7.6-7.6-7.6H78z"/>
<path class="st5" d="M107.8,75.2c0-5.8,1.3-10.4,4-13.6c2.6-3.2,6.4-4.8,11.2-4.8c4.8,0,8.5,1.6,11.2,4.8c2.6,3.2,3.9,7.7,3.9,13.6
	v7.9c0,5.8-1.3,10.3-4,13.5s-6.4,4.8-11.2,4.8c-4.8,0-8.5-1.6-11.1-4.8c-2.6-3.2-3.9-7.7-3.9-13.6L107.8,75.2L107.8,75.2z
	 M117.8,84.6c0,3.1,0.4,5.4,1.2,6.9c0.8,1.5,2.1,2.2,3.8,2.2c1.8,0,3.1-0.8,3.9-2.3c0.8-1.5,1.2-3.9,1.2-7.1V73.3
	c-0.1-2.9-0.5-5.1-1.3-6.5c-0.8-1.4-2-2.1-3.8-2.1c-1.7,0-3.1,0.8-3.9,2.3s-1.2,3.9-1.2,7V84.6z"/>
<path class="st5" d="M243.2,157.8c0,0-0.1,0-0.1,0c-0.4,0-0.7-0.1-1.1-0.2c-3.7-0.7-6.2-3.1-7-6.7c-0.1-0.7,0.3-1.3,0.9-1.5
	s1.3,0.3,1.5,0.9c0.3,1.5,1.4,4.2,5,4.8c0.3,0.1,0.6,0.1,0.9,0.1c0.7,0.1,1.2,0.7,1.1,1.4C244.4,157.4,243.9,157.8,243.2,157.8
	L243.2,157.8z M203.1,156.3c-0.1,0-0.1,0-0.2,0c-0.7-0.1-1.1-0.8-1-1.4c0.6-3.5,1.5-6.7,2.8-9.8c0.3-0.6,1-0.9,1.6-0.6
	c0.6,0.3,0.9,1,0.6,1.6c-1.2,2.9-2.1,5.9-2.7,9.2C204.2,155.9,203.7,156.3,203.1,156.3L203.1,156.3z M252.1,154.5
	c-0.3,0-0.6-0.1-0.8-0.3c-0.5-0.5-0.5-1.2-0.1-1.8c1.9-2,3.2-5,3.7-8.2c0.1-0.7,0.7-1.2,1.4-1.1s1.2,0.7,1.1,1.4
	c-0.5,3.7-2.1,7.2-4.3,9.6C252.8,154.3,252.5,154.5,252.1,154.5z M303.1,149.5c-2.1,0-4.2-0.1-6.4-0.4c-0.3,0-0.5-0.1-0.8-0.1
	c-0.7-0.1-1.2-0.7-1.1-1.4s0.7-1.2,1.4-1.1c0.2,0,0.5,0.1,0.8,0.1c3,0.3,6,0.4,8.9,0.3c0.7,0,1.3,0.5,1.3,1.2c0,0.7-0.5,1.3-1.2,1.3
	C305,149.5,304,149.5,303.1,149.5L303.1,149.5z M315.7,147.9c-0.5,0-1-0.4-1.2-0.9c-0.2-0.7,0.2-1.3,0.9-1.5
	c3.1-0.9,6.1-2.1,8.9-3.6c0.6-0.3,1.3-0.1,1.7,0.5c0.3,0.6,0.1,1.3-0.5,1.7c-2.9,1.6-6.1,2.9-9.4,3.9
	C315.9,147.9,315.8,147.9,315.7,147.9L315.7,147.9z M286.4,147.1c-0.1,0-0.2,0-0.3,0c-3.1-0.9-6.2-1.8-9.5-3c-0.6-0.2-1-0.9-0.8-1.6
	c0.2-0.6,0.9-1,1.6-0.8c3.3,1.1,6.3,2.1,9.4,2.9c0.7,0.2,1,0.9,0.9,1.5C287.4,146.7,286.9,147.1,286.4,147.1L286.4,147.1z
	 M239.1,142.9c-0.3,0-0.7-0.1-0.9-0.4c-0.5-0.5-0.5-1.3,0-1.7c2.9-2.8,6.8-3.9,9.5-4.4c0.7-0.1,1.3,0.3,1.4,1c0.1,0.7-0.3,1.3-1,1.4
	c-3.4,0.6-6.3,1.9-8.2,3.7C239.7,142.8,239.4,142.9,239.1,142.9L239.1,142.9z M267.5,141.2c-0.1,0-0.2,0-0.3-0.1
	c-3.5-1-6.6-1.7-9.5-2.1c-0.7-0.1-1.1-0.7-1.1-1.4c0.1-0.7,0.7-1.1,1.4-1c3,0.4,6.2,1.1,9.8,2.2c0.7,0.2,1,0.9,0.8,1.5
	C268.5,140.8,268,141.2,267.5,141.2L267.5,141.2z M211,138.4c-0.3,0-0.6-0.1-0.8-0.3c-0.5-0.4-0.6-1.2-0.2-1.7
	c0.6-0.7,1.2-1.4,1.9-2.1c1.7-1.8,3.7-3.3,5.8-4.7c0.6-0.4,1.3-0.2,1.7,0.4s0.2,1.3-0.4,1.7c-2,1.3-3.8,2.7-5.4,4.3
	c-0.6,0.6-1.2,1.3-1.7,1.9C211.7,138.2,211.4,138.4,211,138.4L211,138.4z M332.8,138.3c-0.3,0-0.7-0.1-0.9-0.4
	c-0.5-0.5-0.4-1.3,0.1-1.7c2.3-2.2,4.4-4.7,6.1-7.4c0.4-0.6,1.1-0.7,1.7-0.4c0.6,0.4,0.7,1.1,0.4,1.7c-1.9,2.9-4,5.5-6.5,7.8
	C333.4,138.2,333.1,138.3,332.8,138.3L332.8,138.3z M254.2,136.1c-0.4,0-0.8-0.2-1-0.5c-1.6-2.4-4-4.4-7-6c-0.6-0.3-0.8-1.1-0.5-1.7
	c0.3-0.6,1.1-0.8,1.7-0.5c3.3,1.7,6.1,4.1,7.9,6.8c0.4,0.6,0.2,1.3-0.3,1.7C254.6,136,254.4,136.1,254.2,136.1L254.2,136.1z
	 M227.4,127.9c-0.5,0-1.1-0.4-1.2-0.9c-0.2-0.7,0.2-1.3,0.9-1.5c2.6-0.7,5.2-1,7.7-1h0.1c0.8,0,1.6,0,2.5,0.1
	c0.7,0.1,1.2,0.7,1.1,1.3c-0.1,0.7-0.7,1.2-1.3,1.1c-0.7-0.1-1.5-0.1-2.2-0.1h-0.1c-2.4,0-4.7,0.3-7.1,0.9
	C227.6,127.9,227.5,127.9,227.4,127.9L227.4,127.9z M343.4,121.8c-0.1,0-0.3,0-0.4-0.1c-0.6-0.2-1-0.9-0.8-1.6
	c1.1-3,1.8-6.2,2.1-9.4c0.1-0.7,0.7-1.2,1.4-1.1c0.7,0.1,1.2,0.7,1.1,1.4c-0.3,3.4-1.1,6.7-2.2,9.9
	C344.4,121.5,343.9,121.8,343.4,121.8z M345.3,102.3c-0.6,0-1.1-0.4-1.2-1.1c-0.5-3.2-1.4-6.3-2.7-9.1c-0.3-0.6,0-1.4,0.6-1.6
	c0.6-0.3,1.4,0,1.6,0.6c1.4,3.1,2.4,6.4,2.9,9.8c0.1,0.7-0.4,1.3-1,1.4C345.4,102.3,345.4,102.3,345.3,102.3z M337.2,84.5
	c-0.3,0-0.7-0.1-0.9-0.4c-2.1-2.4-4.5-4.5-7.2-6.3c-0.6-0.4-0.7-1.1-0.4-1.7c0.4-0.6,1.1-0.7,1.7-0.4c2.9,1.9,5.5,4.2,7.7,6.7
	c0.4,0.5,0.4,1.3-0.1,1.7C337.8,84.4,337.5,84.5,337.2,84.5L337.2,84.5z M320.9,73.7c-0.1,0-0.3,0-0.4-0.1c-2.2-0.8-4.6-1.4-7-1.9
	c-0.7-0.1-1.1-0.8-1-1.5c0.1-0.7,0.8-1.1,1.5-1c2.6,0.5,5,1.2,7.3,2c0.6,0.2,1,0.9,0.8,1.6C321.9,73.4,321.4,73.7,320.9,73.7
	L320.9,73.7z"/>
<defs>
	
		<filter id="Adobe_OpacityMaskFilter_00000009586008700052561670000011434666292220299707_" filterUnits="userSpaceOnUse" x="272" y="27" width="29" height="40">
		<feColorMatrix  type="matrix" values="1 0 0 0 0  0 1 0 0 0  0 0 1 0 0  0 0 0 1 0"/>
	</filter>
</defs>
<mask maskUnits="userSpaceOnUse" x="272" y="27" width="29" height="40" id="mask-11_00000108280232591571996600000015262695514619748501_">
	<g class="st1">
		<g>
			<rect x="-61.2" y="-79.2" class="st13" width="734.4" height="950.4"/>
		</g>
	</g>
</mask>
<g class="st41">
	<g transform="matrix(1, 0, 0, 1, 272, 27)">
		<g>
			<defs>
				<rect id="SVGID_00000055690881714506182720000012269749228971411873_" x="272" y="27" width="29" height="40"/>
			</defs>
			<clipPath id="SVGID_00000008142637108910223270000014271926822414888595_">
				<use xlink:href="#SVGID_00000055690881714506182720000012269749228971411873_"  style="overflow:visible;"/>
			</clipPath>
			<g id="source-38" style="clip-path:url(#SVGID_00000008142637108910223270000014271926822414888595_);">
				<path class="st5" d="M292.7,31c0.5,0.2,1,0.5,1.4,0.9c0.4,0.4,0.8,0.9,1.1,1.4c0.3,0.6,0.6,1.2,0.8,2c0.2,0.7,0.3,1.6,0.4,2.4
					c0.1,0.9,0.1,1.8,0.1,2.8c0,1-0.2,2-0.3,3c-0.2,1-0.4,2.1-0.7,3.2s-0.6,2.1-1,3.2c-0.4,1.1-0.8,2.1-1.3,3.1
					c-0.5,1-1,1.9-1.6,2.8c-0.6,0.9-1.1,1.7-1.7,2.5c-0.6,0.8-1.2,1.5-1.9,2.1c-0.6,0.6-1.3,1.1-1.9,1.6c-0.6,0.4-1.3,0.8-1.9,1
					s-1.2,0.4-1.8,0.4c-0.6,0-1.1-0.1-1.6-0.2c-0.5-0.2-1-0.5-1.4-0.9c-0.4-0.4-0.8-0.9-1.1-1.4s-0.6-1.2-0.8-2
					c-0.2-0.7-0.3-1.5-0.4-2.4c-0.1-0.9-0.1-1.8-0.1-2.8c0-1,0.2-2,0.3-3c0.2-1,0.4-2.1,0.7-3.2s0.6-2.1,1-3.2
					c0.4-1.1,0.8-2.1,1.3-3.1c0.5-1,1-1.9,1.6-2.9s1.1-1.7,1.7-2.5c0.6-0.8,1.2-1.5,1.9-2.1c0.6-0.6,1.3-1.1,1.9-1.6
					c0.6-0.4,1.3-0.8,1.9-1s1.2-0.4,1.8-0.4C291.7,30.7,292.2,30.8,292.7,31z"/>
			</g>
		</g>
	</g>
</g>
<defs>
	
		<filter id="Adobe_OpacityMaskFilter_00000114044932933469243750000001178629080848645783_" filterUnits="userSpaceOnUse" x="272" y="50" width="35" height="24">
		<feColorMatrix  type="matrix" values="1 0 0 0 0  0 1 0 0 0  0 0 1 0 0  0 0 0 1 0"/>
	</filter>
</defs>
<mask maskUnits="userSpaceOnUse" x="272" y="50" width="35" height="24" id="mask-12_00000159469723477158145740000010442235916814112680_">
	<g class="st1">
		<g>
			<rect x="-61.2" y="-79.2" class="st13" width="734.4" height="950.4"/>
		</g>
	</g>
</mask>
<g class="st43">
	<g transform="matrix(1, 0, 0, 1, 272, 50)">
		<g>
			<defs>
				<rect id="SVGID_00000002360743953425934370000006853828243493939639_" x="272" y="50" width="35" height="24"/>
			</defs>
			<clipPath id="SVGID_00000026144527766431497830000000530666207167751075_">
				<use xlink:href="#SVGID_00000002360743953425934370000006853828243493939639_"  style="overflow:visible;"/>
			</clipPath>
			<g id="source-41" style="clip-path:url(#SVGID_00000026144527766431497830000000530666207167751075_);">
				<g>
					<defs>
						<rect id="SVGID_00000180361199389161464490000013101610957469766303_" x="272.4" y="50.4" width="34.1" height="23.3"/>
					</defs>
					<clipPath id="SVGID_00000080190301935760156850000013090013153127441568_">
						<use xlink:href="#SVGID_00000180361199389161464490000013101610957469766303_"  style="overflow:visible;"/>
					</clipPath>
					<g style="clip-path:url(#SVGID_00000080190301935760156850000013090013153127441568_);">
						<path class="st5" d="M293.2,73.3c-2.1,0-4.3-0.3-6.5-0.9c-9-2.4-15.1-9-13.6-14.7c1.1-4.2,6-6.9,12.6-6.9
							c2.1,0,4.3,0.3,6.5,0.9c9,2.4,15.1,9,13.6,14.7C304.7,70.6,299.7,73.3,293.2,73.3z"/>
						<path class="st5" d="M285.7,50.6V51c2.1,0,4.3,0.3,6.5,0.9c8.9,2.4,14.9,8.9,13.4,14.5c-1.1,4.1-5.9,6.7-12.4,6.7
							c-2.1,0-4.3-0.3-6.5-0.9c-8.9-2.4-14.9-8.9-13.4-14.5c1.1-4.1,5.9-6.7,12.4-6.7V50.6 M285.7,50.6c-6.4,0-11.6,2.6-12.8,7
							c-1.6,5.8,4.6,12.5,13.7,15c2.3,0.6,4.5,0.9,6.6,0.9c6.4,0,11.6-2.6,12.8-7c1.6-5.8-4.6-12.5-13.7-15
							C290,50.9,287.8,50.6,285.7,50.6z"/>
					</g>
				</g>
			</g>
		</g>
	</g>
</g>
<path class="st5" d="M292.2,51.5c1.1,0.3,2.1,0.6,3.2,1.1c1,0.4,2,0.9,2.9,1.4s1.8,1.1,2.6,1.7s1.5,1.3,2.2,2s1.2,1.4,1.6,2.1
	s0.8,1.5,1,2.2c0.2,0.8,0.4,1.5,0.4,2.2c0,0.7,0,1.5-0.2,2.1c-0.2,0.7-0.5,1.4-0.9,2c-0.4,0.6-0.9,1.2-1.5,1.7c-0.6,0.5-1.3,1-2,1.4
	s-1.6,0.8-2.5,1.1s-1.8,0.5-2.9,0.6c-1,0.1-2,0.2-3.1,0.2c-1.1,0-2.2-0.1-3.3-0.2s-2.2-0.4-3.3-0.7c-1.1-0.3-2.1-0.6-3.2-1.1
	c-1-0.4-2-0.9-2.9-1.4c-0.9-0.5-1.8-1.1-2.6-1.7c-0.8-0.6-1.5-1.3-2.2-2s-1.2-1.4-1.6-2.1s-0.8-1.5-1-2.2c-0.2-0.8-0.4-1.5-0.4-2.2
	c0-0.7,0-1.4,0.2-2.1c0.2-0.7,0.5-1.4,0.9-2c0.4-0.6,0.9-1.2,1.5-1.7c0.6-0.5,1.3-1,2-1.4s1.6-0.8,2.5-1.1c0.9-0.3,1.8-0.5,2.9-0.6
	c1-0.1,2-0.2,3.1-0.2c1.1,0,2.2,0.1,3.3,0.2S291.2,51.2,292.2,51.5z"/>
<defs>
	
		<filter id="Adobe_OpacityMaskFilter_00000124879092451980451160000016438557247640478126_" filterUnits="userSpaceOnUse" x="273" y="36" width="39" height="35">
		<feColorMatrix  type="matrix" values="1 0 0 0 0  0 1 0 0 0  0 0 1 0 0  0 0 0 1 0"/>
	</filter>
</defs>
<mask maskUnits="userSpaceOnUse" x="273" y="36" width="39" height="35" id="mask-13_00000153699859133116557820000009078906584375508920_">
	<g class="st1">
		<g>
			<rect x="-61.2" y="-79.2" class="st13" width="734.4" height="950.4"/>
		</g>
	</g>
</mask>
<g class="st46">
	<g transform="matrix(1, 0, 0, 1, 273, 36)">
		<g>
			<defs>
				<rect id="SVGID_00000027579685321179743640000006583285648223785366_" x="273" y="36" width="39" height="35"/>
			</defs>
			<clipPath id="SVGID_00000052066332935892094000000018248234835644359871_">
				<use xlink:href="#SVGID_00000027579685321179743640000006583285648223785366_"  style="overflow:visible;"/>
			</clipPath>
			<g id="source-44" style="clip-path:url(#SVGID_00000052066332935892094000000018248234835644359871_);">
				<path class="st5" d="M306.7,43c0.3,0.4,0.5,0.9,0.7,1.5c0.1,0.6,0.2,1.2,0.1,1.8c-0.1,0.7-0.2,1.3-0.5,2.1
					c-0.2,0.7-0.6,1.5-1,2.2c-0.4,0.8-0.9,1.5-1.5,2.3s-1.2,1.6-2,2.3c-0.7,0.8-1.5,1.5-2.3,2.2s-1.7,1.4-2.6,2.1
					c-0.9,0.7-1.8,1.3-2.8,1.8c-1,0.6-1.9,1.1-2.9,1.5c-1,0.4-1.9,0.8-2.8,1.1c-0.9,0.3-1.8,0.5-2.7,0.7c-0.9,0.2-1.7,0.2-2.4,0.2
					c-0.8,0-1.5-0.1-2.1-0.2c-0.6-0.1-1.2-0.4-1.7-0.7c-0.5-0.3-0.9-0.7-1.2-1.1c-0.3-0.4-0.5-0.9-0.7-1.5s-0.2-1.2-0.1-1.8
					c0.1-0.7,0.2-1.3,0.5-2.1c0.2-0.7,0.6-1.5,1-2.2c0.4-0.8,0.9-1.6,1.5-2.3s1.2-1.6,2-2.3c0.7-0.8,1.5-1.5,2.3-2.2
					s1.7-1.4,2.6-2.1c0.9-0.7,1.8-1.3,2.8-1.8c1-0.6,1.9-1.1,2.9-1.5c1-0.4,1.9-0.8,2.8-1.1c0.9-0.3,1.8-0.5,2.7-0.7
					s1.7-0.2,2.4-0.2c0.8,0,1.5,0.1,2.1,0.2s1.2,0.4,1.7,0.7C306,42.2,306.4,42.6,306.7,43z"/>
			</g>
		</g>
	</g>
</g>
</svg>
